<svg width="1920" height="1080" xmlns="http://www.w3.org/2000/svg">
    <!-- Background -->
    <rect width="1920" height="1080" fill="#111827"/>

    <!-- Header -->
    <rect x="0" y="0" width="1920" height="80" fill="#1f2937"/>

    <!-- Logo and Title -->
    <rect x="40" y="20" width="40" height="40" rx="4" fill="#006838"/>
    <text x="100" y="45" fill="#ffffff" font-family="Arial, sans-serif" font-size="24" font-weight="bold">Case Study Builder</text>

    <!-- Main Title -->
    <text x="40" y="150" fill="#ffffff" font-family="Arial, sans-serif" font-size="36" font-weight="bold">Case Library</text>
    <text x="40" y="190" fill="#9ca3af" font-family="Arial, sans-serif" font-size="20">Advanced search and filtering</text>

    <!-- Content Cards -->
    
      <!-- Card 1 -->
      <rect x="280" y="250" width="1360" height="150" rx="8" fill="#1f2937"/>
      <rect x="300" y="270" width="1320" height="20" rx="4" fill="#374151"/>
      <rect x="300" y="300" width="1280" height="12" rx="3" fill="#4b5563"/>
      <rect x="300" y="320" width="1240" height="12" rx="3" fill="#4b5563"/>
    
      <!-- Card 2 -->
      <rect x="280" y="420" width="1360" height="150" rx="8" fill="#1f2937"/>
      <rect x="300" y="440" width="1320" height="20" rx="4" fill="#374151"/>
      <rect x="300" y="470" width="1280" height="12" rx="3" fill="#4b5563"/>
      <rect x="300" y="490" width="1240" height="12" rx="3" fill="#4b5563"/>
    
      <!-- Card 3 -->
      <rect x="280" y="590" width="1360" height="150" rx="8" fill="#1f2937"/>
      <rect x="300" y="610" width="1320" height="20" rx="4" fill="#374151"/>
      <rect x="300" y="640" width="1280" height="12" rx="3" fill="#4b5563"/>
      <rect x="300" y="660" width="1240" height="12" rx="3" fill="#4b5563"/>
    

    <!-- Navigation (Mobile Bottom, Desktop Sidebar) -->
    <rect x="0" y="80" width="240" height="1000" fill="#1f2937"/>
      <rect x="20" y="120" width="200" height="40" rx="6" fill="#006838"/>
      <text x="40" y="145" fill="#ffffff" font-family="Arial, sans-serif" font-size="14">Dashboard</text>
    
      <rect x="20" y="170" width="200" height="40" rx="6" fill="transparent"/>
      <text x="40" y="195" fill="#ffffff" font-family="Arial, sans-serif" font-size="14">New Case</text>
    
      <rect x="20" y="220" width="200" height="40" rx="6" fill="transparent"/>
      <text x="40" y="245" fill="#ffffff" font-family="Arial, sans-serif" font-size="14">Library</text>
    
      <rect x="20" y="270" width="200" height="40" rx="6" fill="transparent"/>
      <text x="40" y="295" fill="#ffffff" font-family="Arial, sans-serif" font-size="14">Analytics</text>
    
      <rect x="20" y="320" width="200" height="40" rx="6" fill="transparent"/>
      <text x="40" y="345" fill="#ffffff" font-family="Arial, sans-serif" font-size="14">Settings</text>
    
  </svg>