<?xml version="1.0" encoding="UTF-8"?>
<svg xmlns="http://www.w3.org/2000/svg" xmlns:xlink="http://www.w3.org/1999/xlink" width="48px" height="48px" viewBox="0 0 48 48" version="1.1">
<g id="surface1">
<path style=" stroke:none;fill-rule:nonzero;fill:rgb(5.098039%,40.392157%,21.568628%);fill-opacity:1;" d="M 40.6875 6.746094 C 45.316406 11.328125 47.925781 17.332031 48.058594 23.863281 C 47.914062 30.933594 45.109375 36.980469 40.058594 41.863281 C 35.445312 45.929688 29.640625 48.074219 23.519531 48 C 23.097656 48 23.097656 48 22.664062 48 C 16.53125 47.777344 11.34375 44.921875 6.960938 40.800781 C 6.816406 40.671875 6.667969 40.546875 6.519531 40.414062 C 2.902344 37.113281 0.375 31.496094 0.117188 26.640625 C 0.09375 25.820312 0.09375 25 0.105469 24.179688 C 0.105469 24.007812 0.105469 23.835938 0.109375 23.65625 C 0.167969 16.953125 2.753906 11.207031 7.542969 6.488281 C 16.796875 -2.265625 31.542969 -2.015625 40.6875 6.746094 Z M 27.359375 6.71875 C 27.042969 7.355469 27.089844 7.832031 27.089844 8.542969 C 27.089844 8.828125 27.089844 9.113281 27.089844 9.40625 C 27.089844 9.722656 27.09375 10.035156 27.09375 10.359375 C 27.09375 10.695312 27.09375 11.027344 27.09375 11.359375 C 27.09375 12.269531 27.09375 13.175781 27.09375 14.082031 C 27.097656 15.027344 27.097656 15.976562 27.097656 16.921875 C 27.097656 18.71875 27.101562 20.511719 27.101562 22.304688 C 27.105469 24.347656 27.105469 26.390625 27.109375 28.433594 C 27.109375 32.636719 27.113281 36.835938 27.121094 41.039062 C 27.8125 41.386719 28.203125 41.160156 28.933594 40.949219 C 29.171875 40.882812 29.410156 40.816406 29.65625 40.75 C 30.222656 40.613281 30.222656 40.613281 30.480469 40.320312 C 30.503906 39.871094 30.507812 39.421875 30.507812 38.972656 C 30.507812 38.539062 30.507812 38.539062 30.507812 38.097656 C 30.507812 37.785156 30.503906 37.46875 30.503906 37.148438 C 30.503906 36.824219 30.503906 36.5 30.503906 36.179688 C 30.5 35.328125 30.5 34.476562 30.496094 33.628906 C 30.492188 32.761719 30.492188 31.894531 30.492188 31.027344 C 30.488281 29.324219 30.484375 27.621094 30.480469 25.921875 C 32.933594 25.921875 35.390625 25.921875 37.921875 25.921875 C 37.617188 28.335938 36.875 30.269531 35.5 32.273438 C 35.238281 32.636719 35.238281 32.636719 35.28125 33.121094 C 35.859375 33.152344 36.4375 33.175781 37.019531 33.195312 C 37.183594 33.203125 37.347656 33.214844 37.515625 33.226562 C 38.386719 33.246094 38.785156 33.207031 39.4375 32.609375 C 41.691406 28.757812 42.203125 23.90625 41.144531 19.589844 C 40.363281 16.707031 38.957031 14.222656 36.960938 12 C 36.773438 11.78125 36.773438 11.78125 36.582031 11.554688 C 34.273438 9.011719 30.730469 7.203125 27.359375 6.71875 Z M 21.601562 6.71875 C 21.40625 7.492188 21.332031 8.007812 21.332031 8.78125 C 21.332031 9 21.332031 9.21875 21.332031 9.445312 C 21.332031 9.683594 21.332031 9.921875 21.332031 10.167969 C 21.332031 10.421875 21.332031 10.675781 21.332031 10.933594 C 21.332031 11.769531 21.335938 12.609375 21.335938 13.445312 C 21.335938 14.023438 21.335938 14.601562 21.335938 15.183594 C 21.339844 16.710938 21.339844 18.234375 21.34375 19.761719 C 21.347656 21.320312 21.347656 22.875 21.347656 24.433594 C 21.351562 27.488281 21.355469 30.542969 21.359375 33.601562 C 20.738281 32.835938 20.230469 32.140625 19.8125 31.242188 C 19.710938 31.023438 19.605469 30.800781 19.5 30.574219 C 19.390625 30.339844 19.28125 30.105469 19.171875 29.863281 C 18.9375 29.371094 18.703125 28.878906 18.472656 28.382812 C 18.355469 28.136719 18.238281 27.886719 18.113281 27.628906 C 17.5625 26.464844 16.996094 25.304688 16.425781 24.148438 C 16.324219 23.945312 16.226562 23.738281 16.121094 23.527344 C 16.027344 23.339844 15.933594 23.152344 15.839844 22.960938 C 15.757812 22.792969 15.675781 22.628906 15.59375 22.460938 C 15.378906 22.035156 15.378906 22.035156 14.878906 21.839844 C 13.691406 24.296875 12.503906 26.75 11.28125 29.28125 C 11.121094 29.28125 10.964844 29.28125 10.800781 29.28125 C 10.683594 28.949219 10.570312 28.621094 10.453125 28.289062 C 10.390625 28.105469 10.328125 27.921875 10.261719 27.734375 C 9.257812 24.332031 10.007812 21.039062 11.039062 17.761719 C 9.851562 17.761719 8.664062 17.761719 7.441406 17.761719 C 5.875 22.601562 6.042969 27.363281 8.203125 31.996094 C 9.042969 33.585938 10.078125 34.90625 11.28125 36.238281 C 11.957031 35.902344 12.046875 35.484375 12.367188 34.804688 C 12.484375 34.558594 12.597656 34.316406 12.71875 34.0625 C 12.835938 33.808594 12.957031 33.550781 13.078125 33.285156 C 13.316406 32.78125 13.554688 32.277344 13.792969 31.773438 C 13.898438 31.546875 14.003906 31.324219 14.109375 31.09375 C 14.253906 30.789062 14.253906 30.789062 14.398438 30.480469 C 14.480469 30.300781 14.5625 30.121094 14.648438 29.933594 C 14.878906 29.519531 14.878906 29.519531 15.359375 29.28125 C 15.460938 29.542969 15.460938 29.542969 15.566406 29.8125 C 15.8125 30.417969 16.082031 30.996094 16.375 31.582031 C 16.53125 31.898438 16.53125 31.898438 16.691406 32.21875 C 16.804688 32.445312 16.917969 32.667969 17.035156 32.898438 C 17.207031 33.246094 17.207031 33.246094 17.386719 33.601562 C 17.628906 34.089844 17.875 34.582031 18.117188 35.070312 C 18.496094 35.820312 18.871094 36.570312 19.246094 37.324219 C 19.484375 37.796875 19.722656 38.273438 19.957031 38.75 C 20.070312 38.976562 20.183594 39.199219 20.300781 39.433594 C 20.402344 39.640625 20.507812 39.847656 20.617188 40.0625 C 20.707031 40.246094 20.800781 40.429688 20.894531 40.617188 C 21.089844 41.035156 21.089844 41.035156 21.359375 41.28125 C 22.46875 41.28125 23.578125 41.28125 24.71875 41.28125 C 24.71875 29.875 24.71875 18.46875 24.71875 6.71875 C 23.691406 6.71875 22.660156 6.71875 21.601562 6.71875 Z M 21.601562 6.71875 "/>
<path style=" stroke:none;fill-rule:nonzero;fill:rgb(3.921569%,39.607844%,20.784314%);fill-opacity:1;" d="M 30.480469 11.519531 C 32.691406 11.898438 34.472656 13.832031 35.761719 15.601562 C 37.136719 17.777344 38.191406 19.960938 38.160156 22.558594 C 37.105469 22.566406 36.050781 22.570312 34.996094 22.574219 C 34.636719 22.574219 34.277344 22.574219 33.917969 22.578125 C 33.402344 22.582031 32.886719 22.582031 32.371094 22.582031 C 31.90625 22.585938 31.90625 22.585938 31.429688 22.585938 C 30.71875 22.558594 30.71875 22.558594 30.480469 22.320312 C 30.457031 21.980469 30.453125 21.640625 30.453125 21.300781 C 30.453125 21.085938 30.453125 20.867188 30.453125 20.644531 C 30.453125 20.410156 30.457031 20.175781 30.457031 19.933594 C 30.457031 19.695312 30.457031 19.457031 30.457031 19.207031 C 30.457031 18.441406 30.460938 17.671875 30.464844 16.90625 C 30.464844 16.386719 30.46875 15.867188 30.46875 15.347656 C 30.472656 14.070312 30.476562 12.796875 30.480469 11.519531 Z M 30.480469 11.519531 "/>
<path style=" stroke:none;fill-rule:nonzero;fill:rgb(8.235294%,37.254903%,22.352941%);fill-opacity:1;" d="M 30.480469 11.519531 C 31.640625 11.691406 32.09375 12.085938 32.878906 12.960938 C 32.246094 12.800781 31.613281 12.644531 30.960938 12.480469 C 30.960938 15.570312 30.960938 18.65625 30.960938 21.839844 C 33.175781 21.839844 35.394531 21.839844 37.679688 21.839844 C 37.324219 20.175781 37.324219 20.175781 36.960938 18.480469 C 36.800781 18.480469 36.644531 18.480469 36.480469 18.480469 C 35.90625 17.378906 35.398438 16.3125 35.039062 15.121094 C 36.695312 16.539062 37.714844 18.757812 38.160156 20.878906 C 38.164062 21.441406 38.164062 22 38.160156 22.558594 C 37.105469 22.566406 36.050781 22.570312 34.996094 22.574219 C 34.636719 22.574219 34.277344 22.574219 33.917969 22.578125 C 33.402344 22.582031 32.886719 22.582031 32.371094 22.582031 C 31.90625 22.585938 31.90625 22.585938 31.429688 22.585938 C 30.71875 22.558594 30.71875 22.558594 30.480469 22.320312 C 30.457031 21.980469 30.453125 21.640625 30.453125 21.300781 C 30.453125 21.085938 30.453125 20.867188 30.453125 20.644531 C 30.453125 20.410156 30.457031 20.175781 30.457031 19.933594 C 30.457031 19.695312 30.457031 19.457031 30.457031 19.207031 C 30.457031 18.441406 30.460938 17.671875 30.464844 16.90625 C 30.464844 16.386719 30.46875 15.867188 30.46875 15.347656 C 30.472656 14.070312 30.476562 12.796875 30.480469 11.519531 Z M 30.480469 11.519531 "/>
<path style=" stroke:none;fill-rule:nonzero;fill:rgb(7.843138%,37.64706%,22.352941%);fill-opacity:1;" d="M 14.878906 29.28125 C 15.039062 29.28125 15.195312 29.28125 15.359375 29.28125 C 16.328125 31.117188 17.285156 32.957031 18.238281 34.800781 C 18.449219 35.203125 18.449219 35.203125 18.664062 35.613281 C 19.070312 36.402344 19.472656 37.191406 19.875 37.980469 C 20.003906 38.226562 20.132812 38.472656 20.261719 38.726562 C 20.4375 39.074219 20.4375 39.074219 20.613281 39.421875 C 20.769531 39.726562 20.769531 39.726562 20.929688 40.035156 C 21.121094 40.558594 21.121094 40.558594 20.878906 41.28125 C 20.722656 41.28125 20.5625 41.28125 20.398438 41.28125 C 20.398438 40.882812 20.398438 40.488281 20.398438 40.078125 C 20.246094 40.027344 20.09375 39.972656 19.933594 39.914062 C 19.773438 39.8125 19.609375 39.707031 19.441406 39.601562 C 19.359375 39.199219 19.28125 38.800781 19.199219 38.398438 C 18.972656 37.902344 18.730469 37.414062 18.480469 36.929688 C 18.109375 36.21875 17.773438 35.5625 17.519531 34.800781 C 17.363281 34.722656 17.203125 34.640625 17.039062 34.558594 C 16.792969 34.054688 16.792969 34.054688 16.546875 33.421875 C 16.464844 33.214844 16.382812 33.007812 16.296875 32.792969 C 16.089844 32.183594 15.949219 31.59375 15.839844 30.960938 C 15.65625 31.078125 15.472656 31.199219 15.285156 31.320312 C 14.640625 31.679688 14.640625 31.679688 13.921875 31.679688 C 13.851562 31.898438 13.78125 32.117188 13.710938 32.339844 C 13.441406 33.121094 13.441406 33.121094 13.171875 33.613281 C 12.917969 34.085938 12.917969 34.085938 12.960938 34.679688 C 12.960938 35.355469 12.847656 35.679688 12.480469 36.238281 C 11.761719 36.71875 11.761719 36.71875 11.175781 36.703125 C 10.359375 36.40625 10.0625 36.003906 9.601562 35.28125 C 9.601562 35.042969 9.601562 34.804688 9.601562 34.558594 C 10.410156 34.90625 10.910156 35.371094 11.519531 36 C 11.597656 35.839844 11.671875 35.679688 11.75 35.511719 C 12.097656 34.78125 12.445312 34.046875 12.796875 33.316406 C 12.914062 33.0625 13.035156 32.808594 13.160156 32.546875 C 13.273438 32.300781 13.390625 32.058594 13.511719 31.804688 C 13.617188 31.578125 13.726562 31.355469 13.835938 31.121094 C 14.15625 30.484375 14.480469 29.871094 14.878906 29.28125 Z M 14.878906 29.28125 "/>
<path style=" stroke:none;fill-rule:nonzero;fill:rgb(13.725491%,37.254903%,25.098041%);fill-opacity:1;" d="M 20.878906 6.480469 C 21.117188 6.558594 21.355469 6.636719 21.601562 6.71875 C 21.601562 15.589844 21.601562 24.460938 21.601562 33.601562 C 21.363281 33.601562 21.125 33.601562 20.878906 33.601562 C 20.765625 33.371094 20.648438 33.140625 20.53125 32.902344 C 19.753906 31.34375 18.972656 29.785156 18.191406 28.230469 C 17.855469 27.5625 17.523438 26.894531 17.1875 26.230469 C 17.015625 25.886719 16.84375 25.546875 16.671875 25.203125 C 16.421875 24.703125 16.167969 24.199219 15.914062 23.695312 C 15.800781 23.46875 15.800781 23.46875 15.683594 23.234375 C 15.375 22.613281 15.097656 22.019531 14.878906 21.359375 C 15.039062 21.359375 15.195312 21.359375 15.359375 21.359375 C 15.359375 21.519531 15.359375 21.675781 15.359375 21.839844 C 15.597656 21.839844 15.835938 21.839844 16.078125 21.839844 C 16.332031 22.429688 16.546875 22.96875 16.660156 23.605469 C 16.816406 24.308594 17.070312 24.855469 17.402344 25.496094 C 17.578125 25.84375 17.578125 25.84375 17.757812 26.199219 C 17.882812 26.4375 18.007812 26.679688 18.136719 26.925781 C 18.382812 27.402344 18.625 27.882812 18.871094 28.359375 C 19.035156 28.675781 19.035156 28.675781 19.203125 29 C 19.441406 29.519531 19.441406 29.519531 19.441406 30 C 19.597656 30 19.757812 30 19.921875 30 C 20.238281 30.792969 20.554688 31.585938 20.878906 32.398438 C 20.878906 23.847656 20.878906 15.292969 20.878906 6.480469 Z M 20.878906 6.480469 "/>
<path style=" stroke:none;fill-rule:nonzero;fill:rgb(7.450981%,36.862746%,21.176471%);fill-opacity:1;" d="M 32.519531 25.648438 C 32.832031 25.648438 33.144531 25.648438 33.464844 25.648438 C 33.707031 25.648438 33.707031 25.648438 33.957031 25.648438 C 34.453125 25.648438 34.949219 25.648438 35.449219 25.648438 C 35.757812 25.648438 36.070312 25.648438 36.390625 25.648438 C 36.820312 25.648438 36.820312 25.648438 37.261719 25.648438 C 37.921875 25.679688 37.921875 25.679688 38.160156 25.921875 C 38.066406 27.28125 37.789062 28.292969 37.199219 29.519531 C 36.960938 29.039062 36.960938 29.039062 37.679688 26.160156 C 35.460938 26.160156 33.246094 26.160156 30.960938 26.160156 C 30.960938 30.992188 30.960938 35.824219 30.960938 40.800781 C 30.089844 41.039062 29.21875 41.273438 28.320312 41.519531 C 28.082031 41.363281 27.84375 41.203125 27.601562 41.039062 C 28.472656 40.800781 29.34375 40.566406 30.238281 40.320312 C 30.359375 33.191406 30.359375 33.191406 30.480469 25.921875 C 31.164062 25.578125 31.753906 25.648438 32.519531 25.648438 Z M 32.519531 25.648438 "/>
<path style=" stroke:none;fill-rule:nonzero;fill:rgb(5.490196%,35.294119%,20%);fill-opacity:1;" d="M 6.238281 20.640625 C 6.398438 20.71875 6.558594 20.796875 6.71875 20.878906 C 6.714844 21.027344 6.710938 21.175781 6.703125 21.324219 C 6.589844 25.238281 6.683594 28.707031 8.652344 32.203125 C 8.878906 32.640625 8.878906 32.640625 8.878906 33.121094 C 8.160156 32.878906 8.160156 32.878906 7.90625 32.433594 C 7.832031 32.25 7.757812 32.066406 7.679688 31.875 C 7.402344 31.199219 7.117188 30.5625 6.78125 29.910156 C 6.480469 29.28125 6.480469 29.28125 6.480469 28.558594 C 6.320312 28.480469 6.164062 28.402344 6 28.320312 C 5.992188 27.265625 5.988281 26.210938 5.988281 25.15625 C 5.984375 24.796875 5.984375 24.4375 5.980469 24.078125 C 5.980469 23.5625 5.976562 23.046875 5.976562 22.53125 C 5.976562 22.21875 5.972656 21.910156 5.972656 21.589844 C 6 20.878906 6 20.878906 6.238281 20.640625 Z M 6.238281 20.640625 "/>
<path style=" stroke:none;fill-rule:nonzero;fill:rgb(10.980392%,32.549021%,21.176471%);fill-opacity:1;" d="M 26.878906 6.480469 C 27.414062 7.28125 27.417969 7.535156 27.414062 8.46875 C 27.414062 8.714844 27.414062 8.960938 27.414062 9.214844 C 27.410156 9.46875 27.40625 9.726562 27.40625 9.988281 C 27.40625 10.246094 27.40625 10.507812 27.40625 10.773438 C 27.394531 12.6875 27.394531 12.6875 27.121094 12.960938 C 27.082031 13.421875 27.058594 13.886719 27.042969 14.347656 C 27.035156 14.628906 27.023438 14.910156 27.011719 15.199219 C 27.003906 15.496094 26.996094 15.789062 26.984375 16.09375 C 26.976562 16.390625 26.964844 16.6875 26.953125 16.992188 C 26.929688 17.730469 26.902344 18.464844 26.878906 19.199219 C 26.800781 19.199219 26.722656 19.199219 26.640625 19.199219 C 26.632812 17.425781 26.628906 15.652344 26.625 13.882812 C 26.625 13.277344 26.625 12.671875 26.621094 12.070312 C 26.617188 11.203125 26.617188 10.339844 26.617188 9.472656 C 26.617188 9.203125 26.613281 8.929688 26.613281 8.648438 C 26.613281 8.398438 26.613281 8.148438 26.613281 7.894531 C 26.613281 7.671875 26.613281 7.449219 26.609375 7.222656 C 26.640625 6.71875 26.640625 6.71875 26.878906 6.480469 Z M 26.878906 6.480469 "/>
<path style=" stroke:none;fill-rule:nonzero;fill:rgb(12.54902%,41.176471%,26.274511%);fill-opacity:1;" d="M 41.28125 28.078125 C 41.589844 29.015625 41.378906 29.445312 41.085938 30.375 C 41 30.652344 40.914062 30.929688 40.824219 31.214844 C 40.558594 31.921875 40.558594 31.921875 40.078125 32.398438 C 39.910156 32.875 39.746094 33.355469 39.601562 33.839844 C 39.125 33.839844 38.648438 33.839844 38.160156 33.839844 C 38.160156 33.679688 38.160156 33.523438 38.160156 33.359375 C 37.050781 33.359375 35.941406 33.359375 34.800781 33.359375 C 35.015625 32.503906 35.152344 32.171875 35.65625 31.5 C 35.765625 31.351562 35.875 31.207031 35.984375 31.054688 C 36.070312 30.945312 36.152344 30.832031 36.238281 30.71875 C 36.320312 30.878906 36.398438 31.035156 36.480469 31.199219 C 36.242188 31.667969 36.242188 31.667969 35.894531 32.191406 C 35.78125 32.363281 35.667969 32.539062 35.550781 32.71875 C 35.460938 32.851562 35.371094 32.984375 35.28125 33.121094 C 36.503906 33.128906 37.675781 33.097656 38.878906 32.878906 C 39.488281 32.214844 39.589844 32.007812 39.839844 31.199219 C 40.050781 30.734375 40.265625 30.269531 40.484375 29.804688 C 40.585938 29.582031 40.683594 29.355469 40.789062 29.125 C 40.945312 28.773438 41.109375 28.425781 41.28125 28.078125 Z M 41.28125 28.078125 "/>
<path style=" stroke:none;fill-rule:nonzero;fill:rgb(17.647059%,44.705883%,30.19608%);fill-opacity:1;" d="M 14.878906 21.359375 C 15.039062 21.359375 15.195312 21.359375 15.359375 21.359375 C 15.359375 21.519531 15.359375 21.675781 15.359375 21.839844 C 15.597656 21.839844 15.835938 21.839844 16.078125 21.839844 C 16.332031 22.429688 16.546875 22.96875 16.660156 23.605469 C 16.816406 24.308594 17.070312 24.855469 17.402344 25.496094 C 17.578125 25.84375 17.578125 25.84375 17.757812 26.199219 C 17.882812 26.4375 18.007812 26.679688 18.136719 26.925781 C 18.382812 27.402344 18.625 27.882812 18.871094 28.359375 C 18.980469 28.570312 19.089844 28.78125 19.203125 29 C 19.441406 29.519531 19.441406 29.519531 19.441406 30 C 19.597656 30 19.757812 30 19.921875 30 C 20.085938 30.382812 20.253906 30.769531 20.414062 31.15625 C 20.554688 31.476562 20.554688 31.476562 20.695312 31.804688 C 20.878906 32.398438 20.878906 32.398438 20.640625 33.121094 C 20.542969 32.925781 20.445312 32.734375 20.347656 32.53125 C 20.277344 32.398438 20.210938 32.261719 20.140625 32.121094 C 19.980469 31.800781 19.820312 31.480469 19.660156 31.15625 C 19.121094 30.082031 18.582031 29.007812 18.042969 27.929688 C 17.714844 27.28125 17.390625 26.628906 17.0625 25.976562 C 16.898438 25.648438 16.734375 25.320312 16.566406 24.992188 C 16.332031 24.527344 16.097656 24.058594 15.863281 23.589844 C 15.726562 23.316406 15.589844 23.042969 15.445312 22.761719 C 15.121094 22.078125 15.121094 22.078125 14.878906 21.359375 Z M 14.878906 21.359375 "/>
<path style=" stroke:none;fill-rule:nonzero;fill:rgb(12.156863%,40.784314%,26.666668%);fill-opacity:1;" d="M 14.640625 29.761719 C 14.878906 30.480469 14.878906 30.480469 14.484375 31.296875 C 14.210938 31.777344 13.933594 32.253906 13.652344 32.730469 C 13.148438 33.628906 12.859375 34.21875 12.960938 35.28125 C 12.664062 36.074219 12.496094 36.230469 11.761719 36.71875 C 10.890625 36.699219 10.617188 36.539062 10.003906 35.910156 C 9.601562 35.28125 9.601562 35.28125 9.601562 34.558594 C 10.410156 34.90625 10.910156 35.371094 11.519531 36 C 11.597656 35.835938 11.675781 35.671875 11.753906 35.503906 C 12.105469 34.765625 12.457031 34.023438 12.808594 33.285156 C 12.933594 33.027344 13.054688 32.769531 13.179688 32.503906 C 13.296875 32.257812 13.414062 32.011719 13.535156 31.757812 C 13.644531 31.53125 13.75 31.304688 13.863281 31.070312 C 14.160156 30.480469 14.160156 30.480469 14.640625 29.761719 Z M 14.640625 29.761719 "/>
<path style=" stroke:none;fill-rule:nonzero;fill:rgb(18.039216%,42.745098%,30.980393%);fill-opacity:1;" d="M 30.960938 25.679688 C 31.945312 25.675781 32.933594 25.667969 33.921875 25.667969 C 34.257812 25.664062 34.59375 25.664062 34.929688 25.660156 C 35.410156 25.660156 35.890625 25.65625 36.375 25.65625 C 36.808594 25.65625 36.808594 25.65625 37.253906 25.652344 C 37.921875 25.679688 37.921875 25.679688 38.160156 25.921875 C 38.066406 27.28125 37.789062 28.292969 37.199219 29.519531 C 36.960938 29.039062 36.960938 29.039062 37.679688 26.160156 C 35.460938 26.160156 33.246094 26.160156 30.960938 26.160156 C 30.960938 26 30.960938 25.84375 30.960938 25.679688 Z M 30.960938 25.679688 "/>
<path style=" stroke:none;fill-rule:nonzero;fill:rgb(5.882353%,34.509805%,19.215687%);fill-opacity:1;" d="M 40.558594 17.761719 C 40.71875 17.761719 40.875 17.761719 41.039062 17.761719 C 41.511719 18.941406 41.5625 19.867188 41.519531 21.121094 C 41.679688 21.121094 41.835938 21.121094 42 21.121094 C 42.007812 21.898438 42.011719 22.679688 42.015625 23.460938 C 42.015625 23.679688 42.019531 23.902344 42.019531 24.128906 C 42.023438 24.34375 42.023438 24.554688 42.023438 24.777344 C 42.023438 24.972656 42.027344 25.167969 42.027344 25.371094 C 42 25.90625 41.910156 26.367188 41.761719 26.878906 C 41.601562 26.878906 41.441406 26.878906 41.28125 26.878906 C 41.285156 26.738281 41.289062 26.59375 41.292969 26.445312 C 41.386719 22.707031 41.386719 22.707031 40.71875 19.046875 C 40.558594 18.480469 40.558594 18.480469 40.558594 17.761719 Z M 40.558594 17.761719 "/>
<path style=" stroke:none;fill-rule:nonzero;fill:rgb(28.235295%,53.725493%,40.000001%);fill-opacity:1;" d="M 3.359375 35.761719 C 3.5 35.910156 3.636719 36.058594 3.78125 36.210938 C 4.269531 36.738281 4.269531 36.738281 4.828125 36.914062 C 5.28125 37.199219 5.28125 37.199219 5.476562 37.980469 C 5.804688 39.023438 6.140625 39.285156 6.972656 39.929688 C 7.785156 40.605469 8.441406 41.429688 9.121094 42.238281 C 8.207031 42.238281 7.953125 41.894531 7.324219 41.277344 C 7.121094 41.070312 7.121094 41.070312 6.914062 40.859375 C 6.777344 40.71875 6.636719 40.582031 6.496094 40.4375 C 3.359375 37.195312 3.359375 37.195312 3.359375 35.761719 Z M 3.359375 35.761719 "/>
<path style=" stroke:none;fill-rule:nonzero;fill:rgb(7.450981%,38.039216%,22.745098%);fill-opacity:1;" d="M 22.386719 0.457031 C 22.664062 0.457031 22.9375 0.457031 23.226562 0.457031 C 23.511719 0.460938 23.796875 0.464844 24.089844 0.464844 C 24.527344 0.464844 24.527344 0.464844 24.972656 0.46875 C 25.6875 0.472656 26.402344 0.476562 27.121094 0.480469 C 27.121094 0.558594 27.121094 0.636719 27.121094 0.71875 C 26.949219 0.726562 26.777344 0.730469 26.597656 0.738281 C 25.824219 0.765625 25.046875 0.796875 24.269531 0.824219 C 24 0.835938 23.730469 0.84375 23.449219 0.855469 C 23.191406 0.863281 22.933594 0.875 22.667969 0.882812 C 22.308594 0.898438 22.308594 0.898438 21.941406 0.910156 C 21.359375 0.925781 21.359375 0.925781 20.878906 1.199219 C 20.878906 1.359375 20.878906 1.515625 20.878906 1.679688 C 19.679688 1.441406 19.679688 1.441406 18.480469 1.199219 C 19.710938 0.492188 20.992188 0.449219 22.386719 0.457031 Z M 22.386719 0.457031 "/>
<path style=" stroke:none;fill-rule:nonzero;fill:rgb(18.82353%,47.843137%,31.37255%);fill-opacity:1;" d="M 35.039062 15.121094 C 36.738281 16.574219 37.621094 18.738281 38.160156 20.878906 C 38.160156 21.117188 38.160156 21.355469 38.160156 21.601562 C 38 21.601562 37.84375 21.601562 37.679688 21.601562 C 37.441406 20.570312 37.203125 19.539062 36.960938 18.480469 C 36.800781 18.480469 36.644531 18.480469 36.480469 18.480469 C 35.90625 17.378906 35.398438 16.3125 35.039062 15.121094 Z M 35.039062 15.121094 "/>
<path style=" stroke:none;fill-rule:nonzero;fill:rgb(13.725491%,40.784314%,26.666668%);fill-opacity:1;" d="M 11.28125 17.519531 C 11.359375 17.679688 11.4375 17.835938 11.519531 18 C 11.359375 18.324219 11.359375 18.324219 11.191406 18.652344 C 10.550781 20.058594 10.597656 21.625 10.515625 23.144531 C 10.484375 23.613281 10.484375 23.613281 10.457031 24.09375 C 10.40625 24.863281 10.363281 25.632812 10.320312 26.398438 C 10.242188 26.398438 10.160156 26.398438 10.078125 26.398438 C 9.539062 20.371094 9.539062 20.371094 11.039062 17.761719 C 11.121094 17.679688 11.199219 17.601562 11.28125 17.519531 Z M 11.28125 17.519531 "/>
<path style=" stroke:none;fill-rule:nonzero;fill:rgb(17.647059%,46.27451%,31.37255%);fill-opacity:1;" d="M 42.238281 38.878906 C 42.238281 39.601562 42.238281 39.601562 41.625 40.300781 C 41.363281 40.5625 41.097656 40.824219 40.828125 41.085938 C 40.695312 41.21875 40.5625 41.351562 40.425781 41.492188 C 39.425781 42.480469 39.425781 42.480469 38.878906 42.480469 C 38.863281 41.835938 38.863281 41.835938 39.121094 41.039062 C 39.640625 40.671875 40.171875 40.402344 40.742188 40.121094 C 41.359375 39.796875 41.789062 39.410156 42.238281 38.878906 Z M 42.238281 38.878906 "/>
<path style=" stroke:none;fill-rule:nonzero;fill:rgb(20%,46.666667%,32.941177%);fill-opacity:1;" d="M 40.800781 7.199219 C 41.792969 8.011719 42.675781 8.800781 43.441406 9.839844 C 43.359375 10 43.28125 10.15625 43.199219 10.320312 C 42.734375 10.246094 42.734375 10.246094 42.238281 10.078125 C 42.160156 9.84375 42.082031 9.605469 42 9.359375 C 41.796875 9.167969 41.59375 8.972656 41.386719 8.773438 C 40.800781 8.160156 40.800781 8.160156 40.800781 7.199219 Z M 40.800781 7.199219 "/>
<path style=" stroke:none;fill-rule:nonzero;fill:rgb(8.627451%,36.470589%,21.960784%);fill-opacity:1;" d="M 12.480469 25.921875 C 12.78125 26.628906 12.722656 26.875 12.429688 27.605469 C 12.222656 27.988281 12.222656 27.988281 12.015625 28.378906 C 11.878906 28.636719 11.742188 28.898438 11.601562 29.164062 C 11.496094 29.359375 11.390625 29.558594 11.28125 29.761719 C 10.769531 28.996094 10.679688 28.496094 10.558594 27.601562 C 10.875 27.601562 11.195312 27.601562 11.519531 27.601562 C 11.835938 27.046875 12.152344 26.492188 12.480469 25.921875 Z M 12.480469 25.921875 "/>
<path style=" stroke:none;fill-rule:nonzero;fill:rgb(5.490196%,30.588236%,17.647059%);fill-opacity:1;" d="M 37.441406 12.480469 C 37.597656 12.480469 37.757812 12.480469 37.921875 12.480469 C 37.921875 12.636719 37.921875 12.796875 37.921875 12.960938 C 38.078125 12.960938 38.238281 12.960938 38.398438 12.960938 C 38.460938 13.097656 38.519531 13.238281 38.578125 13.378906 C 38.855469 13.949219 38.855469 13.949219 39.375 14.339844 C 40.054688 15.128906 40.011719 15.773438 40.078125 16.800781 C 39.542969 16.105469 39.074219 15.394531 38.625 14.640625 C 38.503906 14.4375 38.382812 14.234375 38.257812 14.023438 C 37.964844 13.515625 37.695312 13.007812 37.441406 12.480469 Z M 37.441406 12.480469 "/>
<path style=" stroke:none;fill-rule:nonzero;fill:rgb(16.470589%,45.09804%,30.19608%);fill-opacity:1;" d="M 32.878906 12.960938 C 33.796875 13.332031 34.367188 13.929688 35.039062 14.640625 C 34.960938 14.796875 34.882812 14.957031 34.800781 15.121094 C 34.484375 14.960938 34.167969 14.804688 33.839844 14.640625 C 33.761719 14.796875 33.679688 14.957031 33.601562 15.121094 C 33.050781 14.292969 32.878906 13.988281 32.878906 12.960938 Z M 32.878906 12.960938 "/>
<path style=" stroke:none;fill-rule:nonzero;fill:rgb(25.490198%,52.549022%,38.431373%);fill-opacity:1;" d="M 35.761719 3.359375 C 36.882812 3.734375 37.699219 4.339844 38.640625 5.039062 C 38.078125 5.039062 37.519531 5.039062 36.960938 5.039062 C 36.960938 4.882812 36.960938 4.722656 36.960938 4.558594 C 36.800781 4.558594 36.644531 4.558594 36.480469 4.558594 C 36.480469 4.324219 36.480469 4.085938 36.480469 3.839844 C 36.242188 3.761719 36.003906 3.679688 35.761719 3.601562 C 35.761719 3.519531 35.761719 3.441406 35.761719 3.359375 Z M 35.761719 3.359375 "/>
<path style=" stroke:none;fill-rule:nonzero;fill:rgb(19.607843%,47.058824%,32.941177%);fill-opacity:1;" d="M 3.359375 35.761719 C 3.5 35.910156 3.636719 36.058594 3.78125 36.210938 C 4.28125 36.734375 4.28125 36.734375 4.84375 36.976562 C 5.28125 37.199219 5.28125 37.199219 5.519531 37.921875 C 4.800781 37.921875 4.800781 37.921875 4.171875 37.378906 C 3.65625 36.785156 3.445312 36.519531 3.359375 35.761719 Z M 3.359375 35.761719 "/>
<path style=" stroke:none;fill-rule:nonzero;fill:rgb(18.431373%,44.313726%,30.980393%);fill-opacity:1;" d="M 30.480469 11.519531 C 31.640625 11.621094 32.117188 12.113281 32.878906 12.960938 C 32.089844 12.800781 31.296875 12.644531 30.480469 12.480469 C 30.480469 12.164062 30.480469 11.847656 30.480469 11.519531 Z M 30.480469 11.519531 "/>
<path style=" stroke:none;fill-rule:nonzero;fill:rgb(11.764706%,41.568628%,25.882354%);fill-opacity:1;" d="M 14.878906 21.359375 C 15.039062 21.359375 15.195312 21.359375 15.359375 21.359375 C 15.359375 21.519531 15.359375 21.675781 15.359375 21.839844 C 15.597656 21.839844 15.835938 21.839844 16.078125 21.839844 C 16.238281 22.234375 16.398438 22.632812 16.558594 23.039062 C 16.324219 23.160156 16.324219 23.160156 16.078125 23.28125 C 15.425781 22.714844 15.164062 22.171875 14.878906 21.359375 Z M 14.878906 21.359375 "/>
<path style=" stroke:none;fill-rule:nonzero;fill:rgb(5.490196%,31.764707%,18.039216%);fill-opacity:1;" d="M 7.441406 30.238281 C 7.914062 30.714844 8.136719 31.085938 8.429688 31.679688 C 8.515625 31.847656 8.597656 32.015625 8.6875 32.191406 C 8.878906 32.640625 8.878906 32.640625 8.878906 33.121094 C 8.160156 32.878906 8.160156 32.878906 7.933594 32.460938 C 7.875 32.292969 7.816406 32.125 7.753906 31.949219 C 7.695312 31.78125 7.632812 31.613281 7.570312 31.441406 C 7.441406 30.960938 7.441406 30.960938 7.441406 30.238281 Z M 7.441406 30.238281 "/>
<path style=" stroke:none;fill-rule:nonzero;fill:rgb(10.588235%,37.254903%,23.921569%);fill-opacity:1;" d="M 37.199219 27.601562 C 37.460938 28.378906 37.421875 28.652344 37.246094 29.429688 C 37.203125 29.621094 37.164062 29.8125 37.121094 30.007812 C 36.960938 30.480469 36.960938 30.480469 36.480469 30.71875 C 36.558594 29.847656 36.636719 28.976562 36.71875 28.078125 C 36.878906 28.078125 37.035156 28.078125 37.199219 28.078125 C 37.199219 27.921875 37.199219 27.761719 37.199219 27.601562 Z M 37.199219 27.601562 "/>
<path style=" stroke:none;fill-rule:nonzero;fill:rgb(10.196079%,39.215687%,23.921569%);fill-opacity:1;" d="M 12.480469 34.558594 C 12.636719 34.640625 12.796875 34.71875 12.960938 34.800781 C 12.796875 35.488281 12.796875 35.488281 12.480469 36.238281 C 11.851562 36.570312 11.851562 36.570312 11.28125 36.71875 C 11.359375 36.480469 11.4375 36.246094 11.519531 36 C 11.679688 36 11.835938 36 12 36 C 12.160156 35.523438 12.316406 35.050781 12.480469 34.558594 Z M 12.480469 34.558594 "/>
<path style=" stroke:none;fill-rule:nonzero;fill:rgb(7.450981%,38.039216%,22.352941%);fill-opacity:1;" d="M 27.601562 0.71875 C 29.027344 0.957031 29.027344 0.957031 30.480469 1.199219 C 29.519531 1.679688 29.519531 1.679688 28.636719 1.5 C 27.839844 1.199219 27.839844 1.199219 27.601562 0.71875 Z M 27.601562 0.71875 "/>
<path style=" stroke:none;fill-rule:nonzero;fill:rgb(9.019608%,36.862746%,22.745098%);fill-opacity:1;" d="M 7.441406 40.558594 C 7.757812 40.640625 8.074219 40.71875 8.398438 40.800781 C 8.398438 40.957031 8.398438 41.117188 8.398438 41.28125 C 8.636719 41.359375 8.875 41.4375 9.121094 41.519531 C 9.40625 42.015625 9.40625 42.015625 9.601562 42.480469 C 8.574219 42.101562 8.097656 41.398438 7.441406 40.558594 Z M 7.441406 40.558594 "/>
<path style=" stroke:none;fill-rule:nonzero;fill:rgb(8.627451%,37.64706%,22.745098%);fill-opacity:1;" d="M 5.039062 9.839844 C 5.121094 10 5.199219 10.15625 5.28125 10.320312 C 4.847656 11.1875 4.308594 11.820312 3.601562 12.480469 C 3.949219 11.492188 4.441406 10.695312 5.039062 9.839844 Z M 5.039062 9.839844 "/>
<path style=" stroke:none;fill-rule:nonzero;fill:rgb(6.666667%,32.941177%,19.215687%);fill-opacity:1;" d="M 14.160156 22.558594 C 14.320312 22.640625 14.476562 22.71875 14.640625 22.800781 C 14.164062 23.871094 14.164062 23.871094 13.679688 24.960938 C 13.523438 24.644531 13.363281 24.328125 13.199219 24 C 13.359375 24 13.515625 24 13.679688 24 C 13.839844 23.523438 13.996094 23.050781 14.160156 22.558594 Z M 14.160156 22.558594 "/>
<path style=" stroke:none;fill-rule:nonzero;fill:rgb(8.627451%,38.039216%,23.137255%);fill-opacity:1;" d="M 9.601562 42.480469 C 10.195312 42.597656 10.195312 42.597656 10.800781 42.71875 C 10.878906 42.957031 10.957031 43.195312 11.039062 43.441406 C 11.199219 43.441406 11.355469 43.441406 11.519531 43.441406 C 11.441406 43.597656 11.363281 43.757812 11.28125 43.921875 C 11 43.726562 10.71875 43.53125 10.441406 43.335938 C 10.285156 43.226562 10.128906 43.117188 9.96875 43.007812 C 9.847656 42.910156 9.726562 42.816406 9.601562 42.71875 C 9.601562 42.640625 9.601562 42.5625 9.601562 42.480469 Z M 9.601562 42.480469 "/>
<path style=" stroke:none;fill-rule:nonzero;fill:rgb(8.235294%,38.039216%,22.745098%);fill-opacity:1;" d="M 11.28125 4.078125 C 11.359375 4.238281 11.4375 4.398438 11.519531 4.558594 C 11.363281 4.558594 11.203125 4.558594 11.039062 4.558594 C 10.960938 4.796875 10.882812 5.035156 10.800781 5.28125 C 10.402344 5.359375 10.007812 5.4375 9.601562 5.519531 C 10.738281 4.351562 10.738281 4.351562 11.28125 4.078125 Z M 11.28125 4.078125 "/>
</g>
</svg>
