<?xml version="1.0" encoding="UTF-8"?>
<svg xmlns="http://www.w3.org/2000/svg" xmlns:xlink="http://www.w3.org/1999/xlink" width="40px" height="40px" viewBox="0 0 40 40" version="1.1">
<g id="surface1">
<path style=" stroke:none;fill-rule:nonzero;fill:rgb(5.098039%,40.392157%,21.568628%);fill-opacity:1;" d="M 33.90625 5.621094 C 37.761719 9.441406 39.9375 14.441406 40.050781 19.886719 C 39.929688 25.777344 37.589844 30.816406 33.382812 34.886719 C 29.539062 38.273438 24.699219 40.0625 19.597656 40 C 19.246094 40 19.246094 40 18.886719 40 C 13.777344 39.816406 9.453125 37.433594 5.800781 34 C 5.679688 33.894531 5.558594 33.789062 5.433594 33.679688 C 2.417969 30.925781 0.3125 26.246094 0.0976562 22.199219 C 0.078125 21.515625 0.078125 20.832031 0.0898438 20.148438 C 0.0898438 20.007812 0.0898438 19.863281 0.0898438 19.714844 C 0.140625 14.128906 2.292969 9.339844 6.285156 5.40625 C 13.996094 -1.886719 26.285156 -1.679688 33.90625 5.621094 Z M 22.800781 5.597656 C 22.535156 6.128906 22.574219 6.527344 22.574219 7.121094 C 22.574219 7.355469 22.574219 7.59375 22.574219 7.839844 C 22.574219 8.101562 22.578125 8.363281 22.578125 8.632812 C 22.578125 8.914062 22.578125 9.191406 22.578125 9.464844 C 22.578125 10.222656 22.578125 10.980469 22.578125 11.734375 C 22.582031 12.523438 22.582031 13.3125 22.582031 14.101562 C 22.582031 15.597656 22.585938 17.09375 22.585938 18.585938 C 22.589844 20.289062 22.589844 21.992188 22.589844 23.695312 C 22.589844 27.199219 22.59375 30.695312 22.601562 34.199219 C 23.175781 34.488281 23.503906 34.300781 24.113281 34.125 C 24.308594 34.070312 24.507812 34.011719 24.714844 33.957031 C 25.183594 33.84375 25.183594 33.84375 25.402344 33.601562 C 25.417969 33.226562 25.421875 32.851562 25.421875 32.476562 C 25.421875 32.117188 25.421875 32.117188 25.421875 31.746094 C 25.421875 31.488281 25.417969 31.222656 25.417969 30.957031 C 25.417969 30.6875 25.417969 30.417969 25.417969 30.148438 C 25.417969 29.441406 25.417969 28.730469 25.414062 28.023438 C 25.410156 27.300781 25.410156 26.578125 25.410156 25.855469 C 25.40625 24.4375 25.402344 23.019531 25.402344 21.601562 C 27.445312 21.601562 29.492188 21.601562 31.601562 21.601562 C 31.347656 23.613281 30.730469 25.222656 29.582031 26.894531 C 29.363281 27.199219 29.363281 27.199219 29.402344 27.601562 C 29.882812 27.628906 30.363281 27.644531 30.847656 27.664062 C 30.988281 27.667969 31.121094 27.679688 31.261719 27.6875 C 31.988281 27.707031 32.320312 27.671875 32.863281 27.175781 C 34.742188 23.964844 35.167969 19.921875 34.285156 16.324219 C 33.636719 13.921875 32.464844 11.851562 30.800781 10 C 30.644531 9.816406 30.644531 9.816406 30.484375 9.628906 C 28.5625 7.511719 25.609375 6.003906 22.800781 5.597656 Z M 18 5.597656 C 17.839844 6.242188 17.777344 6.671875 17.777344 7.316406 C 17.777344 7.5 17.777344 7.683594 17.777344 7.871094 C 17.777344 8.070312 17.777344 8.269531 17.777344 8.472656 C 17.777344 8.683594 17.777344 8.894531 17.777344 9.113281 C 17.777344 9.808594 17.78125 10.507812 17.78125 11.203125 C 17.78125 11.6875 17.78125 12.167969 17.78125 12.652344 C 17.785156 13.925781 17.785156 15.195312 17.785156 16.46875 C 17.789062 17.765625 17.789062 19.0625 17.789062 20.363281 C 17.792969 22.90625 17.796875 25.453125 17.800781 28 C 17.28125 27.363281 16.859375 26.785156 16.511719 26.035156 C 16.425781 25.851562 16.339844 25.667969 16.25 25.480469 C 16.160156 25.285156 16.066406 25.089844 15.976562 24.886719 C 15.78125 24.476562 15.585938 24.066406 15.394531 23.652344 C 15.296875 23.449219 15.199219 23.238281 15.09375 23.023438 C 14.636719 22.054688 14.164062 21.085938 13.6875 20.125 C 13.605469 19.953125 13.523438 19.78125 13.433594 19.605469 C 13.355469 19.449219 13.277344 19.292969 13.199219 19.132812 C 13.132812 18.996094 13.0625 18.855469 12.996094 18.71875 C 12.816406 18.363281 12.816406 18.363281 12.398438 18.199219 C 11.410156 20.246094 10.417969 22.292969 9.402344 24.402344 C 9.269531 24.402344 9.136719 24.402344 9 24.402344 C 8.902344 24.125 8.808594 23.851562 8.710938 23.574219 C 8.660156 23.421875 8.605469 23.269531 8.550781 23.113281 C 7.714844 20.277344 8.339844 17.53125 9.199219 14.800781 C 8.210938 14.800781 7.21875 14.800781 6.199219 14.800781 C 4.894531 18.835938 5.035156 22.800781 6.835938 26.664062 C 7.535156 27.988281 8.398438 29.089844 9.402344 30.199219 C 9.964844 29.917969 10.039062 29.570312 10.304688 29.003906 C 10.402344 28.800781 10.496094 28.597656 10.597656 28.386719 C 10.695312 28.175781 10.796875 27.957031 10.898438 27.738281 C 11.097656 27.316406 11.296875 26.898438 11.496094 26.476562 C 11.582031 26.289062 11.667969 26.105469 11.757812 25.910156 C 11.878906 25.65625 11.878906 25.65625 12 25.402344 C 12.066406 25.25 12.136719 25.101562 12.207031 24.945312 C 12.398438 24.597656 12.398438 24.597656 12.800781 24.402344 C 12.882812 24.621094 12.882812 24.621094 12.972656 24.84375 C 13.175781 25.347656 13.402344 25.832031 13.644531 26.316406 C 13.777344 26.582031 13.777344 26.582031 13.910156 26.847656 C 14.003906 27.039062 14.097656 27.222656 14.195312 27.414062 C 14.339844 27.707031 14.339844 27.707031 14.488281 28 C 14.691406 28.410156 14.894531 28.816406 15.097656 29.226562 C 15.414062 29.851562 15.726562 30.476562 16.039062 31.105469 C 16.238281 31.496094 16.433594 31.894531 16.628906 32.292969 C 16.726562 32.480469 16.820312 32.667969 16.917969 32.863281 C 17.003906 33.035156 17.089844 33.207031 17.179688 33.386719 C 17.253906 33.539062 17.332031 33.691406 17.410156 33.847656 C 17.574219 34.195312 17.574219 34.195312 17.800781 34.402344 C 18.722656 34.402344 19.648438 34.402344 20.597656 34.402344 C 20.597656 24.894531 20.597656 15.390625 20.597656 5.597656 C 19.742188 5.597656 18.882812 5.597656 18 5.597656 Z M 18 5.597656 "/>
<path style=" stroke:none;fill-rule:nonzero;fill:rgb(3.921569%,39.607844%,20.784314%);fill-opacity:1;" d="M 25.402344 9.597656 C 27.242188 9.914062 28.726562 11.527344 29.800781 13 C 30.949219 14.816406 31.824219 16.632812 31.800781 18.800781 C 30.921875 18.804688 30.042969 18.808594 29.164062 18.8125 C 28.863281 18.8125 28.566406 18.8125 28.265625 18.816406 C 27.835938 18.816406 27.40625 18.816406 26.976562 18.816406 C 26.589844 18.820312 26.589844 18.820312 26.191406 18.820312 C 25.597656 18.800781 25.597656 18.800781 25.402344 18.601562 C 25.378906 18.316406 25.378906 18.035156 25.378906 17.75 C 25.378906 17.570312 25.378906 17.390625 25.378906 17.203125 C 25.378906 17.007812 25.378906 16.8125 25.378906 16.613281 C 25.378906 16.414062 25.378906 16.214844 25.378906 16.003906 C 25.378906 15.367188 25.382812 14.726562 25.386719 14.089844 C 25.386719 13.65625 25.390625 13.222656 25.390625 12.789062 C 25.394531 11.726562 25.398438 10.664062 25.402344 9.597656 Z M 25.402344 9.597656 "/>
<path style=" stroke:none;fill-rule:nonzero;fill:rgb(8.235294%,37.254903%,22.352941%);fill-opacity:1;" d="M 25.402344 9.597656 C 26.367188 9.742188 26.746094 10.070312 27.398438 10.800781 C 26.871094 10.667969 26.34375 10.535156 25.800781 10.402344 C 25.800781 12.976562 25.800781 15.546875 25.800781 18.199219 C 27.644531 18.199219 29.496094 18.199219 31.398438 18.199219 C 31.105469 16.8125 31.105469 16.8125 30.800781 15.402344 C 30.667969 15.402344 30.535156 15.402344 30.402344 15.402344 C 29.921875 14.480469 29.5 13.59375 29.199219 12.601562 C 30.578125 13.78125 31.429688 15.632812 31.800781 17.398438 C 31.804688 17.867188 31.804688 18.332031 31.800781 18.800781 C 30.921875 18.804688 30.042969 18.808594 29.164062 18.8125 C 28.863281 18.8125 28.566406 18.8125 28.265625 18.816406 C 27.835938 18.816406 27.40625 18.816406 26.976562 18.816406 C 26.589844 18.820312 26.589844 18.820312 26.191406 18.820312 C 25.597656 18.800781 25.597656 18.800781 25.402344 18.601562 C 25.378906 18.316406 25.378906 18.035156 25.378906 17.75 C 25.378906 17.570312 25.378906 17.390625 25.378906 17.203125 C 25.378906 17.007812 25.378906 16.8125 25.378906 16.613281 C 25.378906 16.414062 25.378906 16.214844 25.378906 16.003906 C 25.378906 15.367188 25.382812 14.726562 25.386719 14.089844 C 25.386719 13.65625 25.390625 13.222656 25.390625 12.789062 C 25.394531 11.726562 25.398438 10.664062 25.402344 9.597656 Z M 25.402344 9.597656 "/>
<path style=" stroke:none;fill-rule:nonzero;fill:rgb(7.843138%,37.64706%,22.352941%);fill-opacity:1;" d="M 12.398438 24.402344 C 12.53125 24.402344 12.664062 24.402344 12.800781 24.402344 C 13.605469 25.929688 14.402344 27.464844 15.199219 29 C 15.375 29.335938 15.375 29.335938 15.554688 29.675781 C 15.890625 30.335938 16.226562 30.992188 16.5625 31.652344 C 16.667969 31.855469 16.777344 32.058594 16.886719 32.273438 C 17.03125 32.5625 17.03125 32.5625 17.175781 32.851562 C 17.308594 33.105469 17.308594 33.105469 17.441406 33.363281 C 17.601562 33.800781 17.601562 33.800781 17.398438 34.402344 C 17.269531 34.402344 17.136719 34.402344 17 34.402344 C 17 34.070312 17 33.738281 17 33.398438 C 16.871094 33.355469 16.746094 33.308594 16.613281 33.261719 C 16.476562 33.175781 16.339844 33.089844 16.199219 33 C 16.132812 32.667969 16.066406 32.332031 16 32 C 15.808594 31.585938 15.609375 31.179688 15.402344 30.773438 C 15.089844 30.183594 14.8125 29.636719 14.597656 29 C 14.46875 28.933594 14.335938 28.867188 14.199219 28.800781 C 13.996094 28.378906 13.996094 28.378906 13.789062 27.851562 C 13.722656 27.679688 13.652344 27.507812 13.582031 27.328125 C 13.410156 26.820312 13.292969 26.328125 13.199219 25.800781 C 13.046875 25.898438 12.894531 26 12.738281 26.101562 C 12.199219 26.398438 12.199219 26.398438 11.601562 26.398438 C 11.542969 26.582031 11.484375 26.765625 11.425781 26.949219 C 11.199219 27.601562 11.199219 27.601562 10.976562 28.011719 C 10.765625 28.40625 10.765625 28.40625 10.800781 28.898438 C 10.800781 29.464844 10.707031 29.734375 10.402344 30.199219 C 9.800781 30.597656 9.800781 30.597656 9.3125 30.585938 C 8.632812 30.339844 8.386719 30.003906 8 29.402344 C 8 29.203125 8 29.003906 8 28.800781 C 8.675781 29.089844 9.089844 29.476562 9.597656 30 C 9.664062 29.867188 9.726562 29.734375 9.792969 29.59375 C 10.082031 28.984375 10.371094 28.371094 10.664062 27.761719 C 10.761719 27.550781 10.863281 27.339844 10.964844 27.121094 C 11.0625 26.917969 11.160156 26.714844 11.261719 26.503906 C 11.347656 26.316406 11.4375 26.128906 11.53125 25.933594 C 11.796875 25.402344 12.066406 24.894531 12.398438 24.402344 Z M 12.398438 24.402344 "/>
<path style=" stroke:none;fill-rule:nonzero;fill:rgb(13.725491%,37.254903%,25.098041%);fill-opacity:1;" d="M 17.398438 5.402344 C 17.597656 5.464844 17.796875 5.53125 18 5.597656 C 18 12.992188 18 20.382812 18 28 C 17.800781 28 17.605469 28 17.398438 28 C 17.304688 27.808594 17.207031 27.617188 17.109375 27.417969 C 16.460938 26.121094 15.808594 24.820312 15.160156 23.527344 C 14.878906 22.96875 14.601562 22.410156 14.324219 21.859375 C 14.179688 21.574219 14.035156 21.289062 13.894531 21.003906 C 13.683594 20.585938 13.472656 20.167969 13.261719 19.746094 C 13.167969 19.558594 13.167969 19.558594 13.070312 19.363281 C 12.8125 18.84375 12.582031 18.347656 12.398438 17.800781 C 12.53125 17.800781 12.664062 17.800781 12.800781 17.800781 C 12.800781 17.933594 12.800781 18.0625 12.800781 18.199219 C 12.996094 18.199219 13.195312 18.199219 13.398438 18.199219 C 13.609375 18.691406 13.789062 19.140625 13.882812 19.671875 C 14.011719 20.257812 14.226562 20.714844 14.503906 21.246094 C 14.648438 21.535156 14.648438 21.535156 14.796875 21.832031 C 14.902344 22.03125 15.007812 22.234375 15.113281 22.4375 C 15.320312 22.835938 15.519531 23.234375 15.726562 23.632812 C 15.863281 23.894531 15.863281 23.894531 16.003906 24.167969 C 16.199219 24.597656 16.199219 24.597656 16.199219 25 C 16.332031 25 16.464844 25 16.601562 25 C 16.863281 25.660156 17.128906 26.320312 17.398438 27 C 17.398438 19.871094 17.398438 12.746094 17.398438 5.402344 Z M 17.398438 5.402344 "/>
<path style=" stroke:none;fill-rule:nonzero;fill:rgb(7.450981%,36.862746%,21.176471%);fill-opacity:1;" d="M 27.097656 21.375 C 27.359375 21.375 27.621094 21.375 27.886719 21.375 C 28.089844 21.375 28.089844 21.375 28.296875 21.375 C 28.710938 21.375 29.125 21.375 29.542969 21.375 C 29.796875 21.375 30.058594 21.375 30.324219 21.375 C 30.683594 21.375 30.683594 21.375 31.050781 21.375 C 31.601562 21.398438 31.601562 21.398438 31.800781 21.601562 C 31.722656 22.734375 31.492188 23.578125 31 24.597656 C 30.800781 24.199219 30.800781 24.199219 31.398438 21.800781 C 29.550781 21.800781 27.707031 21.800781 25.800781 21.800781 C 25.800781 25.828125 25.800781 29.855469 25.800781 34 C 25.074219 34.199219 24.347656 34.394531 23.601562 34.597656 C 23.402344 34.46875 23.203125 34.335938 23 34.199219 C 23.726562 34 24.453125 33.804688 25.199219 33.601562 C 25.300781 27.660156 25.300781 27.660156 25.402344 21.601562 C 25.96875 21.316406 26.460938 21.375 27.097656 21.375 Z M 27.097656 21.375 "/>
<path style=" stroke:none;fill-rule:nonzero;fill:rgb(5.490196%,35.294119%,20%);fill-opacity:1;" d="M 5.199219 17.199219 C 5.332031 17.265625 5.464844 17.332031 5.597656 17.398438 C 5.597656 17.523438 5.59375 17.644531 5.585938 17.769531 C 5.492188 21.03125 5.570312 23.921875 7.210938 26.835938 C 7.398438 27.199219 7.398438 27.199219 7.398438 27.601562 C 6.800781 27.398438 6.800781 27.398438 6.589844 27.027344 C 6.527344 26.875 6.464844 26.722656 6.398438 26.5625 C 6.167969 26 5.929688 25.46875 5.652344 24.925781 C 5.402344 24.402344 5.402344 24.402344 5.402344 23.800781 C 5.265625 23.734375 5.136719 23.667969 5 23.601562 C 4.992188 22.722656 4.988281 21.84375 4.988281 20.964844 C 4.988281 20.664062 4.988281 20.363281 4.984375 20.066406 C 4.984375 19.636719 4.980469 19.207031 4.980469 18.777344 C 4.980469 18.515625 4.976562 18.257812 4.976562 17.992188 C 5 17.398438 5 17.398438 5.199219 17.199219 Z M 5.199219 17.199219 "/>
<path style=" stroke:none;fill-rule:nonzero;fill:rgb(10.980392%,32.549021%,21.176471%);fill-opacity:1;" d="M 22.398438 5.402344 C 22.84375 6.066406 22.847656 6.277344 22.84375 7.058594 C 22.84375 7.261719 22.84375 7.46875 22.84375 7.679688 C 22.839844 7.890625 22.839844 8.105469 22.839844 8.324219 C 22.839844 8.539062 22.839844 8.757812 22.839844 8.976562 C 22.828125 10.574219 22.828125 10.574219 22.601562 10.800781 C 22.566406 11.183594 22.550781 11.574219 22.535156 11.957031 C 22.527344 12.191406 22.519531 12.425781 22.511719 12.667969 C 22.503906 12.914062 22.496094 13.15625 22.488281 13.410156 C 22.480469 13.660156 22.472656 13.90625 22.460938 14.160156 C 22.441406 14.777344 22.417969 15.386719 22.398438 16 C 22.332031 16 22.269531 16 22.199219 16 C 22.195312 14.519531 22.191406 13.042969 22.1875 11.570312 C 22.1875 11.066406 22.1875 10.558594 22.183594 10.058594 C 22.179688 9.335938 22.179688 8.617188 22.179688 7.894531 C 22.179688 7.667969 22.175781 7.441406 22.175781 7.207031 C 22.175781 7 22.175781 6.789062 22.175781 6.578125 C 22.175781 6.394531 22.175781 6.207031 22.175781 6.019531 C 22.199219 5.597656 22.199219 5.597656 22.398438 5.402344 Z M 22.398438 5.402344 "/>
<path style=" stroke:none;fill-rule:nonzero;fill:rgb(12.54902%,41.176471%,26.274511%);fill-opacity:1;" d="M 34.402344 23.398438 C 34.660156 24.179688 34.480469 24.539062 34.238281 25.3125 C 34.167969 25.542969 34.09375 25.773438 34.019531 26.011719 C 33.800781 26.601562 33.800781 26.601562 33.398438 27 C 33.257812 27.394531 33.121094 27.796875 33 28.199219 C 32.605469 28.199219 32.207031 28.199219 31.800781 28.199219 C 31.800781 28.066406 31.800781 27.9375 31.800781 27.800781 C 30.875 27.800781 29.949219 27.800781 29 27.800781 C 29.179688 27.085938 29.292969 26.808594 29.714844 26.25 C 29.804688 26.125 29.894531 26.003906 29.988281 25.878906 C 30.058594 25.789062 30.128906 25.691406 30.199219 25.597656 C 30.265625 25.730469 30.332031 25.863281 30.402344 26 C 30.203125 26.390625 30.203125 26.390625 29.910156 26.824219 C 29.816406 26.96875 29.722656 27.117188 29.625 27.265625 C 29.550781 27.375 29.476562 27.488281 29.402344 27.601562 C 30.417969 27.605469 31.394531 27.582031 32.398438 27.398438 C 32.90625 26.847656 32.992188 26.671875 33.199219 26 C 33.375 25.613281 33.554688 25.222656 33.738281 24.835938 C 33.820312 24.652344 33.902344 24.464844 33.992188 24.269531 C 34.121094 23.976562 34.257812 23.6875 34.402344 23.398438 Z M 34.402344 23.398438 "/>
<path style=" stroke:none;fill-rule:nonzero;fill:rgb(17.647059%,44.705883%,30.19608%);fill-opacity:1;" d="M 12.398438 17.800781 C 12.53125 17.800781 12.664062 17.800781 12.800781 17.800781 C 12.800781 17.933594 12.800781 18.0625 12.800781 18.199219 C 12.996094 18.199219 13.195312 18.199219 13.398438 18.199219 C 13.609375 18.691406 13.789062 19.140625 13.882812 19.671875 C 14.011719 20.257812 14.226562 20.714844 14.503906 21.246094 C 14.648438 21.535156 14.648438 21.535156 14.796875 21.832031 C 14.902344 22.03125 15.007812 22.234375 15.113281 22.4375 C 15.320312 22.835938 15.519531 23.234375 15.726562 23.632812 C 15.816406 23.808594 15.910156 23.984375 16.003906 24.167969 C 16.199219 24.597656 16.199219 24.597656 16.199219 25 C 16.332031 25 16.464844 25 16.601562 25 C 16.738281 25.320312 16.878906 25.640625 17.011719 25.964844 C 17.128906 26.230469 17.128906 26.230469 17.246094 26.503906 C 17.398438 27 17.398438 27 17.199219 27.601562 C 17.121094 27.4375 17.039062 27.277344 16.957031 27.109375 C 16.898438 27 16.84375 26.886719 16.785156 26.769531 C 16.652344 26.5 16.515625 26.234375 16.382812 25.964844 C 15.933594 25.066406 15.484375 24.171875 15.035156 23.273438 C 14.761719 22.734375 14.492188 22.191406 14.21875 21.648438 C 14.082031 21.375 13.945312 21.101562 13.804688 20.828125 C 13.609375 20.441406 13.414062 20.050781 13.21875 19.660156 C 13.105469 19.429688 12.992188 19.203125 12.871094 18.96875 C 12.601562 18.398438 12.601562 18.398438 12.398438 17.800781 Z M 12.398438 17.800781 "/>
<path style=" stroke:none;fill-rule:nonzero;fill:rgb(12.156863%,40.784314%,26.666668%);fill-opacity:1;" d="M 12.199219 24.800781 C 12.398438 25.402344 12.398438 25.402344 12.070312 26.082031 C 11.84375 26.480469 11.613281 26.878906 11.378906 27.277344 C 10.957031 28.023438 10.714844 28.515625 10.800781 29.402344 C 10.554688 30.0625 10.414062 30.191406 9.800781 30.597656 C 9.074219 30.582031 8.847656 30.449219 8.335938 29.925781 C 8 29.402344 8 29.402344 8 28.800781 C 8.675781 29.089844 9.089844 29.476562 9.597656 30 C 9.664062 29.863281 9.730469 29.726562 9.792969 29.585938 C 10.089844 28.972656 10.378906 28.351562 10.675781 27.738281 C 10.777344 27.523438 10.878906 27.308594 10.984375 27.085938 C 11.082031 26.882812 11.179688 26.675781 11.277344 26.464844 C 11.371094 26.277344 11.457031 26.085938 11.550781 25.890625 C 11.800781 25.402344 11.800781 25.402344 12.199219 24.800781 Z M 12.199219 24.800781 "/>
<path style=" stroke:none;fill-rule:nonzero;fill:rgb(18.039216%,42.745098%,30.980393%);fill-opacity:1;" d="M 25.800781 21.398438 C 26.621094 21.394531 27.445312 21.390625 28.269531 21.390625 C 28.546875 21.386719 28.828125 21.386719 29.109375 21.382812 C 29.507812 21.382812 29.910156 21.378906 30.3125 21.378906 C 30.675781 21.378906 30.675781 21.378906 31.042969 21.378906 C 31.601562 21.398438 31.601562 21.398438 31.800781 21.601562 C 31.722656 22.734375 31.492188 23.578125 31 24.597656 C 30.800781 24.199219 30.800781 24.199219 31.398438 21.800781 C 29.550781 21.800781 27.707031 21.800781 25.800781 21.800781 C 25.800781 21.667969 25.800781 21.535156 25.800781 21.398438 Z M 25.800781 21.398438 "/>
<path style=" stroke:none;fill-rule:nonzero;fill:rgb(5.882353%,34.509805%,19.215687%);fill-opacity:1;" d="M 33.800781 14.800781 C 33.933594 14.800781 34.0625 14.800781 34.199219 14.800781 C 34.59375 15.785156 34.636719 16.554688 34.597656 17.601562 C 34.734375 17.601562 34.863281 17.601562 35 17.601562 C 35.007812 18.25 35.011719 18.898438 35.011719 19.550781 C 35.011719 19.734375 35.015625 19.917969 35.015625 20.105469 C 35.019531 20.285156 35.019531 20.460938 35.019531 20.648438 C 35.019531 20.808594 35.023438 20.972656 35.023438 21.144531 C 35 21.589844 34.925781 21.972656 34.800781 22.398438 C 34.667969 22.398438 34.535156 22.398438 34.402344 22.398438 C 34.402344 22.28125 34.40625 22.160156 34.410156 22.039062 C 34.488281 18.921875 34.488281 18.921875 33.933594 15.871094 C 33.800781 15.402344 33.800781 15.402344 33.800781 14.800781 Z M 33.800781 14.800781 "/>
<path style=" stroke:none;fill-rule:nonzero;fill:rgb(28.235295%,53.725493%,40.000001%);fill-opacity:1;" d="M 2.800781 29.800781 C 2.917969 29.925781 3.03125 30.050781 3.152344 30.175781 C 3.558594 30.613281 3.558594 30.613281 4.023438 30.761719 C 4.402344 31 4.402344 31 4.5625 31.652344 C 4.835938 32.519531 5.117188 32.738281 5.808594 33.273438 C 6.488281 33.839844 7.035156 34.523438 7.601562 35.199219 C 6.839844 35.199219 6.628906 34.910156 6.105469 34.398438 C 5.933594 34.226562 5.933594 34.226562 5.761719 34.050781 C 5.648438 33.933594 5.53125 33.816406 5.414062 33.699219 C 2.800781 30.996094 2.800781 30.996094 2.800781 29.800781 Z M 2.800781 29.800781 "/>
<path style=" stroke:none;fill-rule:nonzero;fill:rgb(7.450981%,38.039216%,22.745098%);fill-opacity:1;" d="M 18.65625 0.378906 C 18.886719 0.378906 19.113281 0.378906 19.355469 0.378906 C 19.59375 0.382812 19.832031 0.386719 20.074219 0.386719 C 20.441406 0.386719 20.441406 0.386719 20.808594 0.390625 C 21.40625 0.394531 22.003906 0.398438 22.601562 0.402344 C 22.601562 0.464844 22.601562 0.53125 22.601562 0.597656 C 22.457031 0.605469 22.316406 0.609375 22.164062 0.613281 C 21.519531 0.636719 20.871094 0.664062 20.222656 0.6875 C 20 0.695312 19.777344 0.703125 19.542969 0.714844 C 19.324219 0.71875 19.113281 0.730469 18.890625 0.734375 C 18.589844 0.75 18.589844 0.75 18.285156 0.757812 C 17.800781 0.769531 17.800781 0.769531 17.398438 1 C 17.398438 1.132812 17.398438 1.261719 17.398438 1.398438 C 16.398438 1.199219 16.398438 1.199219 15.402344 1 C 16.425781 0.410156 17.492188 0.375 18.65625 0.378906 Z M 18.65625 0.378906 "/>
<path style=" stroke:none;fill-rule:nonzero;fill:rgb(18.82353%,47.843137%,31.37255%);fill-opacity:1;" d="M 29.199219 12.601562 C 30.613281 13.8125 31.351562 15.613281 31.800781 17.398438 C 31.800781 17.597656 31.800781 17.796875 31.800781 18 C 31.667969 18 31.535156 18 31.398438 18 C 31.199219 17.140625 31.003906 16.28125 30.800781 15.402344 C 30.667969 15.402344 30.535156 15.402344 30.402344 15.402344 C 29.921875 14.480469 29.5 13.59375 29.199219 12.601562 Z M 29.199219 12.601562 "/>
<path style=" stroke:none;fill-rule:nonzero;fill:rgb(13.725491%,40.784314%,26.666668%);fill-opacity:1;" d="M 9.402344 14.597656 C 9.464844 14.734375 9.53125 14.863281 9.597656 15 C 9.464844 15.269531 9.464844 15.269531 9.324219 15.542969 C 8.792969 16.714844 8.832031 18.019531 8.761719 19.285156 C 8.738281 19.675781 8.738281 19.675781 8.714844 20.078125 C 8.671875 20.71875 8.636719 21.359375 8.601562 22 C 8.535156 22 8.464844 22 8.398438 22 C 7.949219 16.976562 7.949219 16.976562 9.199219 14.800781 C 9.269531 14.734375 9.332031 14.667969 9.402344 14.597656 Z M 9.402344 14.597656 "/>
<path style=" stroke:none;fill-rule:nonzero;fill:rgb(17.647059%,46.27451%,31.37255%);fill-opacity:1;" d="M 35.199219 32.398438 C 35.199219 33 35.199219 33 34.6875 33.582031 C 34.46875 33.800781 34.246094 34.019531 34.023438 34.238281 C 33.914062 34.347656 33.800781 34.460938 33.6875 34.578125 C 32.855469 35.402344 32.855469 35.402344 32.398438 35.402344 C 32.386719 34.863281 32.386719 34.863281 32.601562 34.199219 C 33.035156 33.894531 33.476562 33.667969 33.953125 33.433594 C 34.464844 33.164062 34.824219 32.839844 35.199219 32.398438 Z M 35.199219 32.398438 "/>
<path style=" stroke:none;fill-rule:nonzero;fill:rgb(20%,46.666667%,32.941177%);fill-opacity:1;" d="M 34 6 C 34.828125 6.675781 35.5625 7.332031 36.199219 8.199219 C 36.132812 8.332031 36.066406 8.464844 36 8.601562 C 35.613281 8.539062 35.613281 8.539062 35.199219 8.398438 C 35.132812 8.203125 35.066406 8.003906 35 7.800781 C 34.832031 7.640625 34.660156 7.476562 34.488281 7.3125 C 34 6.800781 34 6.800781 34 6 Z M 34 6 "/>
<path style=" stroke:none;fill-rule:nonzero;fill:rgb(8.627451%,36.470589%,21.960784%);fill-opacity:1;" d="M 10.402344 21.601562 C 10.652344 22.191406 10.601562 22.394531 10.359375 23.003906 C 10.183594 23.324219 10.183594 23.324219 10.011719 23.648438 C 9.898438 23.863281 9.785156 24.082031 9.667969 24.304688 C 9.582031 24.464844 9.492188 24.632812 9.402344 24.800781 C 8.972656 24.164062 8.898438 23.746094 8.800781 23 C 9.0625 23 9.328125 23 9.597656 23 C 9.863281 22.539062 10.128906 22.078125 10.402344 21.601562 Z M 10.402344 21.601562 "/>
<path style=" stroke:none;fill-rule:nonzero;fill:rgb(5.490196%,30.588236%,17.647059%);fill-opacity:1;" d="M 31.199219 10.402344 C 31.332031 10.402344 31.464844 10.402344 31.601562 10.402344 C 31.601562 10.53125 31.601562 10.664062 31.601562 10.800781 C 31.730469 10.800781 31.863281 10.800781 32 10.800781 C 32.050781 10.914062 32.097656 11.03125 32.148438 11.148438 C 32.378906 11.625 32.378906 11.625 32.8125 11.949219 C 33.378906 12.605469 33.34375 13.144531 33.398438 14 C 32.953125 13.421875 32.5625 12.828125 32.1875 12.199219 C 32.085938 12.03125 31.984375 11.863281 31.882812 11.6875 C 31.636719 11.261719 31.414062 10.839844 31.199219 10.402344 Z M 31.199219 10.402344 "/>
<path style=" stroke:none;fill-rule:nonzero;fill:rgb(16.470589%,45.09804%,30.19608%);fill-opacity:1;" d="M 27.398438 10.800781 C 28.164062 11.109375 28.640625 11.609375 29.199219 12.199219 C 29.132812 12.332031 29.070312 12.464844 29 12.601562 C 28.738281 12.46875 28.472656 12.335938 28.199219 12.199219 C 28.136719 12.332031 28.066406 12.464844 28 12.601562 C 27.542969 11.910156 27.398438 11.65625 27.398438 10.800781 Z M 27.398438 10.800781 "/>
<path style=" stroke:none;fill-rule:nonzero;fill:rgb(25.490198%,52.549022%,38.431373%);fill-opacity:1;" d="M 29.800781 2.800781 C 30.734375 3.113281 31.417969 3.617188 32.199219 4.199219 C 31.730469 4.199219 31.265625 4.199219 30.800781 4.199219 C 30.800781 4.070312 30.800781 3.933594 30.800781 3.800781 C 30.667969 3.800781 30.535156 3.800781 30.402344 3.800781 C 30.402344 3.605469 30.402344 3.40625 30.402344 3.199219 C 30.203125 3.136719 30.003906 3.066406 29.800781 3 C 29.800781 2.933594 29.800781 2.867188 29.800781 2.800781 Z M 29.800781 2.800781 "/>
<path style=" stroke:none;fill-rule:nonzero;fill:rgb(19.607843%,47.058824%,32.941177%);fill-opacity:1;" d="M 2.800781 29.800781 C 2.917969 29.925781 3.03125 30.050781 3.152344 30.175781 C 3.566406 30.613281 3.566406 30.613281 4.035156 30.8125 C 4.402344 31 4.402344 31 4.597656 31.601562 C 4 31.601562 4 31.601562 3.476562 31.148438 C 3.046875 30.652344 2.871094 30.433594 2.800781 29.800781 Z M 2.800781 29.800781 "/>
<path style=" stroke:none;fill-rule:nonzero;fill:rgb(18.431373%,44.313726%,30.980393%);fill-opacity:1;" d="M 25.402344 9.597656 C 26.367188 9.683594 26.765625 10.09375 27.398438 10.800781 C 26.742188 10.667969 26.082031 10.535156 25.402344 10.402344 C 25.402344 10.136719 25.402344 9.871094 25.402344 9.597656 Z M 25.402344 9.597656 "/>
<path style=" stroke:none;fill-rule:nonzero;fill:rgb(11.764706%,41.568628%,25.882354%);fill-opacity:1;" d="M 12.398438 17.800781 C 12.53125 17.800781 12.664062 17.800781 12.800781 17.800781 C 12.800781 17.933594 12.800781 18.0625 12.800781 18.199219 C 12.996094 18.199219 13.195312 18.199219 13.398438 18.199219 C 13.53125 18.527344 13.664062 18.859375 13.800781 19.199219 C 13.605469 19.300781 13.605469 19.300781 13.398438 19.402344 C 12.855469 18.929688 12.636719 18.476562 12.398438 17.800781 Z M 12.398438 17.800781 "/>
<path style=" stroke:none;fill-rule:nonzero;fill:rgb(5.490196%,31.764707%,18.039216%);fill-opacity:1;" d="M 6.199219 25.199219 C 6.59375 25.597656 6.78125 25.90625 7.023438 26.398438 C 7.097656 26.539062 7.164062 26.679688 7.238281 26.824219 C 7.398438 27.199219 7.398438 27.199219 7.398438 27.601562 C 6.800781 27.398438 6.800781 27.398438 6.613281 27.050781 C 6.5625 26.910156 6.511719 26.769531 6.460938 26.625 C 6.414062 26.484375 6.359375 26.34375 6.308594 26.199219 C 6.199219 25.800781 6.199219 25.800781 6.199219 25.199219 Z M 6.199219 25.199219 "/>
<path style=" stroke:none;fill-rule:nonzero;fill:rgb(10.588235%,37.254903%,23.921569%);fill-opacity:1;" d="M 31 23 C 31.21875 23.648438 31.183594 23.878906 31.039062 24.523438 C 31.003906 24.683594 30.96875 24.84375 30.933594 25.007812 C 30.800781 25.402344 30.800781 25.402344 30.402344 25.597656 C 30.464844 24.871094 30.53125 24.148438 30.597656 23.398438 C 30.730469 23.398438 30.863281 23.398438 31 23.398438 C 31 23.269531 31 23.136719 31 23 Z M 31 23 "/>
<path style=" stroke:none;fill-rule:nonzero;fill:rgb(10.196079%,39.215687%,23.921569%);fill-opacity:1;" d="M 10.402344 28.800781 C 10.53125 28.867188 10.664062 28.933594 10.800781 29 C 10.664062 29.574219 10.664062 29.574219 10.402344 30.199219 C 9.875 30.476562 9.875 30.476562 9.402344 30.597656 C 9.464844 30.402344 9.53125 30.207031 9.597656 30 C 9.734375 30 9.863281 30 10 30 C 10.132812 29.601562 10.261719 29.207031 10.402344 28.800781 Z M 10.402344 28.800781 "/>
<path style=" stroke:none;fill-rule:nonzero;fill:rgb(7.450981%,38.039216%,22.352941%);fill-opacity:1;" d="M 23 0.597656 C 24.191406 0.796875 24.191406 0.796875 25.402344 1 C 24.597656 1.398438 24.597656 1.398438 23.863281 1.25 C 23.199219 1 23.199219 1 23 0.597656 Z M 23 0.597656 "/>
<path style=" stroke:none;fill-rule:nonzero;fill:rgb(9.019608%,36.862746%,22.745098%);fill-opacity:1;" d="M 6.199219 33.800781 C 6.464844 33.867188 6.730469 33.933594 7 34 C 7 34.128906 7 34.265625 7 34.402344 C 7.199219 34.464844 7.394531 34.53125 7.601562 34.597656 C 7.839844 35.011719 7.839844 35.011719 8 35.402344 C 7.144531 35.085938 6.746094 34.5 6.199219 33.800781 Z M 6.199219 33.800781 "/>
<path style=" stroke:none;fill-rule:nonzero;fill:rgb(8.627451%,37.64706%,22.745098%);fill-opacity:1;" d="M 4.199219 8.199219 C 4.269531 8.332031 4.332031 8.464844 4.402344 8.601562 C 4.039062 9.324219 3.589844 9.851562 3 10.402344 C 3.292969 9.578125 3.699219 8.914062 4.199219 8.199219 Z M 4.199219 8.199219 "/>
<path style=" stroke:none;fill-rule:nonzero;fill:rgb(6.666667%,32.941177%,19.215687%);fill-opacity:1;" d="M 11.800781 18.800781 C 11.933594 18.867188 12.0625 18.933594 12.199219 19 C 11.804688 19.894531 11.804688 19.894531 11.398438 20.800781 C 11.269531 20.535156 11.136719 20.273438 11 20 C 11.132812 20 11.261719 20 11.398438 20 C 11.535156 19.601562 11.664062 19.207031 11.800781 18.800781 Z M 11.800781 18.800781 "/>
<path style=" stroke:none;fill-rule:nonzero;fill:rgb(8.627451%,38.039216%,23.137255%);fill-opacity:1;" d="M 8 35.402344 C 8.496094 35.496094 8.496094 35.496094 9 35.597656 C 9.066406 35.796875 9.128906 35.996094 9.199219 36.199219 C 9.332031 36.199219 9.464844 36.199219 9.597656 36.199219 C 9.535156 36.332031 9.46875 36.464844 9.402344 36.601562 C 9.167969 36.4375 8.933594 36.277344 8.699219 36.113281 C 8.570312 36.023438 8.441406 35.929688 8.308594 35.839844 C 8.207031 35.757812 8.105469 35.679688 8 35.597656 C 8 35.535156 8 35.46875 8 35.402344 Z M 8 35.402344 "/>
<path style=" stroke:none;fill-rule:nonzero;fill:rgb(8.235294%,38.039216%,22.745098%);fill-opacity:1;" d="M 9.402344 3.398438 C 9.464844 3.53125 9.53125 3.664062 9.597656 3.800781 C 9.46875 3.800781 9.335938 3.800781 9.199219 3.800781 C 9.132812 3.996094 9.070312 4.195312 9 4.402344 C 8.667969 4.464844 8.339844 4.53125 8 4.597656 C 8.949219 3.625 8.949219 3.625 9.402344 3.398438 Z M 9.402344 3.398438 "/>
</g>
</svg>
