<?xml version="1.0" encoding="UTF-8"?>
<svg version="1.1" xmlns="http://www.w3.org/2000/svg" width="200" height="200">
<path d="M0 0 C19.28475251 19.08035662 30.15332377 44.09684627 30.71777344 71.32324219 C30.1115184 100.78010477 18.42857665 125.97839301 -2.62597656 146.32324219 C-21.84043887 163.26502616 -46.02475788 172.18969792 -71.53222656 171.88574219 C-73.29566406 171.88380859 -73.29566406 171.88380859 -75.09472656 171.88183594 C-100.65655768 170.9646869 -122.26474328 159.06772137 -140.53222656 141.88574219 C-141.13679688 141.35722656 -141.74136719 140.82871094 -142.36425781 140.28417969 C-157.43554983 126.518831 -167.96454917 103.11786927 -169.0369873 82.88575745 C-169.14154534 79.46699426 -169.13885588 76.05551561 -169.09472656 72.63574219 C-169.09013428 71.91718048 -169.08554199 71.19861877 -169.08081055 70.45828247 C-168.83609432 42.52926816 -158.05494875 18.58804466 -138.10351562 -1.07983398 C-99.54217934 -37.55525003 -38.11123425 -36.51076247 0 0 Z M-55.53222656 -0.11425781 C-56.85618476 2.53365859 -56.65511549 4.51281176 -56.65248108 7.47915649 C-56.65385574 8.66830154 -56.65523041 9.85744659 -56.65664673 11.08262634 C-56.65305145 12.39388992 -56.64945618 13.7051535 -56.64575195 15.05615234 C-56.64547 16.44559222 -56.64562798 17.83503225 -56.64619446 19.22447205 C-56.6464821 23.0031717 -56.64059069 26.78183979 -56.6336205 30.56053209 C-56.62738149 34.50701775 -56.62678273 38.45350407 -56.62559509 42.3999939 C-56.6224834 49.87624499 -56.61427218 57.35248151 -56.6042456 64.82872617 C-56.59307946 73.33888674 -56.58757275 81.849048 -56.58255017 90.35921407 C-56.57208944 107.86806521 -56.55449312 125.37690216 -56.53222656 142.88574219 C-53.6495605 144.32707522 -52.02461525 143.37901563 -48.96972656 142.51074219 C-47.9784375 142.23488281 -46.98714844 141.95902344 -45.96582031 141.67480469 C-43.60951632 141.11454537 -43.60951632 141.11454537 -42.53222656 139.88574219 C-42.43836275 138.01393278 -42.41478853 136.13856159 -42.41870117 134.2644043 C-42.41881447 132.46264992 -42.41881447 132.46264992 -42.41893005 130.62449646 C-42.42409134 129.31723099 -42.42925262 128.00996552 -42.43457031 126.66308594 C-42.43643458 125.31930087 -42.43785844 123.97551512 -42.43885803 122.63172913 C-42.44268255 119.08891942 -42.45251225 115.54615049 -42.46356201 112.00335693 C-42.47377757 108.39059002 -42.47841066 104.77781635 -42.48339844 101.16503906 C-42.49360439 94.07190405 -42.51317606 86.97888112 -42.53222656 79.88574219 C-32.30222656 79.88574219 -22.07222656 79.88574219 -11.53222656 79.88574219 C-12.78959245 89.94466931 -15.8901784 98.01395502 -21.61425781 106.36230469 C-22.70426313 107.87481117 -22.70426313 107.87481117 -22.53222656 109.88574219 C-20.1136821 110.02110848 -17.70272873 110.11994498 -15.28222656 110.19824219 C-14.6003125 110.24013672 -13.91839844 110.28203125 -13.21582031 110.32519531 C-9.58883444 110.41322895 -7.9200076 110.24218738 -5.21191406 107.75292969 C4.18929532 91.7052839 6.30704747 71.49982878 1.90527344 53.51074219 C-1.35852311 41.49444615 -7.21243006 31.14109814 -15.53222656 21.88574219 C-16.30953125 20.96921875 -16.30953125 20.96921875 -17.10253906 20.03417969 C-26.72763013 9.44174278 -41.48171694 1.89295785 -55.53222656 -0.11425781 Z M-79.53222656 -0.11425781 C-80.33597326 3.100729 -80.65622413 5.24783041 -80.65248108 8.46685791 C-80.65385574 9.38108521 -80.65523041 10.2953125 -80.65664673 11.23724365 C-80.65305145 12.23274231 -80.64945618 13.22824097 -80.64575195 14.25390625 C-80.64589798 15.30787598 -80.64604401 16.3618457 -80.64619446 17.44775391 C-80.64549766 20.93231258 -80.63771609 24.41681784 -80.62988281 27.90136719 C-80.62801781 30.31703665 -80.62659429 32.73270649 -80.62559509 35.14837646 C-80.62177642 41.50729415 -80.61195164 47.866189 -80.60089111 54.22509766 C-80.59066305 60.71353853 -80.58609448 67.20198308 -80.58105469 73.69042969 C-80.57032883 86.42221026 -80.55345231 99.15397501 -80.53222656 111.88574219 C-83.12730565 108.70361949 -85.24615935 105.79717813 -86.97753906 102.06933594 C-87.4101001 101.14910645 -87.84266113 100.22887695 -88.28833008 99.28076172 C-88.74006592 98.30478027 -89.19180176 97.32879883 -89.65722656 96.32324219 C-90.62596261 94.26663219 -91.59604347 92.21065518 -92.56738281 90.15527344 C-93.0573877 89.11580566 -93.54739258 88.07633789 -94.05224609 87.00537109 C-96.35498107 82.15147016 -98.71139292 77.32549969 -101.09472656 72.51074219 C-101.51189941 71.65536865 -101.92907227 70.79999512 -102.35888672 69.91870117 C-102.74737793 69.13696533 -103.13586914 68.35522949 -103.53613281 67.54980469 C-103.87459229 66.86354004 -104.21305176 66.17727539 -104.56176758 65.47021484 C-105.44989481 63.70642741 -105.44989481 63.70642741 -107.53222656 62.88574219 C-112.48222656 73.11574219 -117.43222656 83.34574219 -122.53222656 93.88574219 C-123.19222656 93.88574219 -123.85222656 93.88574219 -124.53222656 93.88574219 C-125.01732449 92.51282351 -125.49498169 91.13727515 -125.96972656 89.76074219 C-126.2365625 88.99503906 -126.50339844 88.22933594 -126.77832031 87.44042969 C-130.96092147 73.26726306 -127.82661334 59.54970011 -123.53222656 45.88574219 C-128.48222656 45.88574219 -133.43222656 45.88574219 -138.53222656 45.88574219 C-145.05312404 66.05976877 -144.34530787 85.89932134 -135.34472656 105.19824219 C-131.84664154 111.82179013 -127.53680779 117.32509638 -122.53222656 122.88574219 C-119.71868718 121.4789725 -119.32943843 119.72924664 -118.00097656 116.89746094 C-117.52015625 115.88103516 -117.03933594 114.86460937 -116.54394531 113.81738281 C-116.04507813 112.74681641 -115.54621094 111.67625 -115.03222656 110.57324219 C-114.04278462 108.47291516 -113.05320663 106.37265221 -112.06347656 104.27246094 C-111.62583984 103.33619873 -111.18820313 102.39993652 -110.73730469 101.43530273 C-110.14079102 100.17327026 -110.14079102 100.17327026 -109.53222656 98.88574219 C-109.19126953 98.13526611 -108.8503125 97.38479004 -108.49902344 96.61157227 C-107.53222656 94.88574219 -107.53222656 94.88574219 -105.53222656 93.88574219 C-105.10623924 94.98121368 -105.10623924 94.98121368 -104.67164612 96.09881592 C-103.64016847 98.62172518 -102.51889764 101.03926817 -101.30151367 103.4765625 C-100.64589699 104.79252411 -100.64589699 104.79252411 -99.97703552 106.1350708 C-99.509272 107.06857361 -99.04150848 108.00207642 -98.55957031 108.96386719 C-97.83490318 110.41463654 -97.83490318 110.41463654 -97.09559631 111.89471436 C-96.07700293 113.93258017 -95.05740371 115.9699435 -94.03686523 118.00683594 C-92.46916851 121.13685638 -90.90576759 124.26899632 -89.34277344 127.40136719 C-88.3527957 129.38066224 -87.36256998 131.35983328 -86.37207031 133.33886719 C-85.90228256 134.28046692 -85.43249481 135.22206665 -84.94847107 136.19219971 C-84.51454544 137.0568988 -84.08061981 137.9215979 -83.63354492 138.8125 C-83.25097031 139.57685364 -82.86839569 140.34120728 -82.47422791 141.12872314 C-81.65580407 142.85852328 -81.65580407 142.85852328 -80.53222656 143.88574219 C-75.91222656 143.88574219 -71.29222656 143.88574219 -66.53222656 143.88574219 C-66.53222656 96.36574219 -66.53222656 48.84574219 -66.53222656 -0.11425781 C-70.82222656 -0.11425781 -75.11222656 -0.11425781 -79.53222656 -0.11425781 Z " fill="#0D6737" transform="translate(169.5322265625,28.1142578125)"/>
<path d="M0 0 C9.21241824 1.5775476 16.64139014 9.62697415 22 17 C27.74283141 26.07782507 32.13501454 35.16389208 32 46 C27.60343827 46.02465504 23.2069128 46.04283842 18.81030273 46.05493164 C17.31355082 46.05997121 15.81680384 46.06680287 14.32006836 46.07543945 C12.17300193 46.08752159 10.02600038 46.09323191 7.87890625 46.09765625 C5.93866577 46.10551147 5.93866577 46.10551147 3.95922852 46.11352539 C1 46 1 46 0 45 C-0.0928726 43.58774954 -0.11746772 42.17091066 -0.11352539 40.75561523 C-0.11344986 39.85475693 -0.11337433 38.95389862 -0.11329651 38.02574158 C-0.10813522 37.04658279 -0.10297394 36.06742401 -0.09765625 35.05859375 C-0.0962413 34.06118668 -0.09482635 33.0637796 -0.09336853 32.03614807 C-0.08775114 28.83656876 -0.07519571 25.63705831 -0.0625 22.4375 C-0.05748724 20.27408955 -0.05292395 18.11067801 -0.04882812 15.94726562 C-0.03777607 10.63148675 -0.02102104 5.31574829 0 0 Z " fill="#0A6535" transform="translate(127,48)"/>
<path d="M0 0 C4.83545033 0.70703223 6.7291278 2.35531384 10 6 C7.36 5.34 4.72 4.68 2 4 C2 16.87 2 29.74 2 43 C11.24 43 20.48 43 30 43 C28.515 36.07 28.515 36.07 27 29 C26.34 29 25.68 29 25 29 C22.60457417 24.41845739 20.49170266 19.9723422 19 15 C25.90036316 20.91459699 30.15245848 30.15282963 32 39 C32.01922883 41.3332541 32.02087645 43.66676006 32 46 C27.60343827 46.02465504 23.2069128 46.04283842 18.81030273 46.05493164 C17.31355082 46.05997121 15.81680384 46.06680287 14.32006836 46.07543945 C12.17300193 46.08752159 10.02600038 46.09323191 7.87890625 46.09765625 C5.93866577 46.10551147 5.93866577 46.10551147 3.95922852 46.11352539 C1 46 1 46 0 45 C-0.0928726 43.58774954 -0.11746772 42.17091066 -0.11352539 40.75561523 C-0.11344986 39.85475693 -0.11337433 38.95389862 -0.11329651 38.02574158 C-0.10813522 37.04658279 -0.10297394 36.06742401 -0.09765625 35.05859375 C-0.0962413 34.06118668 -0.09482635 33.0637796 -0.09336853 32.03614807 C-0.08775114 28.83656876 -0.07519571 25.63705831 -0.0625 22.4375 C-0.05748724 20.27408955 -0.05292395 18.11067801 -0.04882812 15.94726562 C-0.03777607 10.63148675 -0.02102104 5.31574829 0 0 Z " fill="#155F39" transform="translate(127,48)"/>
<path d="M0 0 C0.66 0 1.32 0 2 0 C6.02883377 7.65176146 10.02393085 15.32069656 14 23 C14.87229248 24.68125977 14.87229248 24.68125977 15.76220703 26.39648438 C17.45717294 29.67522414 19.13698448 32.96128567 20.8125 36.25 C21.34584961 37.27867187 21.87919922 38.30734375 22.42871094 39.3671875 C23.15429199 40.80191406 23.15429199 40.80191406 23.89453125 42.265625 C24.54192261 43.53067871 24.54192261 43.53067871 25.20239258 44.82128906 C26 47 26 47 25 50 C24.34 50 23.68 50 23 50 C23 48.35 23 46.7 23 45 C22.360625 44.773125 21.72125 44.54625 21.0625 44.3125 C20.381875 43.879375 19.70125 43.44625 19 43 C18.66552831 41.33356141 18.33243915 39.66684525 18 38 C17.05480671 35.93238968 16.05091244 33.89093299 15 31.875 C13.4616925 28.90932064 12.05677648 26.17032944 11 23 C10.34 22.67 9.68 22.34 9 22 C7.96484375 19.890625 7.96484375 19.890625 6.9375 17.25 C6.59589844 16.38890625 6.25429687 15.5278125 5.90234375 14.640625 C5.0344672 12.10086505 4.46073358 9.64090587 4 7 C3.236875 7.495 2.47375 7.99 1.6875 8.5 C-1 10 -1 10 -4 10 C-4.28875 10.9075 -4.5775 11.815 -4.875 12.75 C-6 16 -6 16 -7.125 18.0625 C-8.17149447 20.02541793 -8.17149447 20.02541793 -8 22.5 C-8 25.31335882 -8.46876225 26.66284764 -10 29 C-13 31 -13 31 -15.4375 30.9375 C-18.83417709 29.69481326 -20.0660015 28.00844211 -22 25 C-22 24.01 -22 23.02 -22 22 C-18.61994673 23.44859426 -16.5412772 25.37330171 -14 28 C-13.68248779 27.3294458 -13.36497559 26.6588916 -13.0378418 25.96801758 C-11.59036045 22.91492223 -10.13897093 19.86370055 -8.6875 16.8125 C-8.18798828 15.75740234 -7.68847656 14.70230469 -7.17382812 13.61523438 C-6.68720703 12.59365234 -6.20058594 11.57207031 -5.69921875 10.51953125 C-5.25408936 9.58214111 -4.80895996 8.64475098 -4.3503418 7.67895508 C-3.0100648 5.01996765 -1.66805605 2.46838739 0 0 Z " fill="#146039" transform="translate(62,122)"/>
<path d="M0 0 C0.99 0.33 1.98 0.66 3 1 C3 37.96 3 74.92 3 113 C2.01 113 1.02 113 0 113 C-0.47961182 112.04005127 -0.95922363 111.08010254 -1.45336914 110.09106445 C-4.69658807 103.60138579 -7.94162371 97.112652 -11.1980896 90.62960815 C-12.59467445 87.84892357 -13.98966355 85.06743984 -15.38452148 82.28588867 C-16.09835821 80.86334597 -16.81289886 79.44115631 -17.52807617 78.01928711 C-18.58178134 75.92394482 -19.63293714 73.82734096 -20.68359375 71.73046875 C-21.16317787 70.77904243 -21.16317787 70.77904243 -21.65245056 69.80839539 C-22.94415117 67.22532552 -24.08500334 64.74498998 -25 62 C-24.34 62 -23.68 62 -23 62 C-23 62.66 -23 63.32 -23 64 C-22.01 64 -21.02 64 -20 64 C-18.94749771 66.45583867 -18.05061748 68.70995192 -17.59008789 71.34887695 C-16.9366912 74.28443124 -15.87421178 76.56025844 -14.49609375 79.23046875 C-13.75649414 80.68163086 -13.75649414 80.68163086 -13.00195312 82.16210938 C-12.48568359 83.16048828 -11.96941406 84.15886719 -11.4375 85.1875 C-10.41180202 87.1791589 -9.38948449 89.17256357 -8.37109375 91.16796875 C-7.6893811 92.48704224 -7.6893811 92.48704224 -6.99389648 93.83276367 C-6 96 -6 96 -6 98 C-5.34 98 -4.68 98 -4 98 C-2.68 101.3 -1.36 104.6 0 108 C0 72.36 0 36.72 0 0 Z " fill="#235F40" transform="translate(87,27)"/>
<path d="M0 0 C1.29744141 -0.00128906 2.59488281 -0.00257812 3.93164062 -0.00390625 C4.94665649 -0.00076416 4.94665649 -0.00076416 5.98217773 0.00244141 C8.0539479 0.00780048 10.12550214 0.00248732 12.19726562 -0.00390625 C13.49341797 -0.00261719 14.78957031 -0.00132813 16.125 0 C17.92046265 0.00169189 17.92046265 0.00169189 19.75219727 0.00341797 C22.49609375 0.1328125 22.49609375 0.1328125 23.49609375 1.1328125 C23.10514536 6.80156422 21.94510138 11.02184006 19.49609375 16.1328125 C18.49609375 14.1328125 18.49609375 14.1328125 21.49609375 2.1328125 C12.25609375 2.1328125 3.01609375 2.1328125 -6.50390625 2.1328125 C-6.50390625 22.2628125 -6.50390625 42.3928125 -6.50390625 63.1328125 C-10.13390625 64.1228125 -13.76390625 65.1128125 -17.50390625 66.1328125 C-18.49390625 65.4728125 -19.48390625 64.8128125 -20.50390625 64.1328125 C-16.87390625 63.1428125 -13.24390625 62.1528125 -9.50390625 61.1328125 C-9.00890625 31.4328125 -9.00890625 31.4328125 -8.50390625 1.1328125 C-5.64555139 -0.29636493 -3.19132906 0.00300441 0 0 Z " fill="#135E36" transform="translate(135.50390625,106.8671875)"/>
<path d="M0 0 C0.66 0.33 1.32 0.66 2 1 C1.97905273 1.61294922 1.95810547 2.22589844 1.93652344 2.85742188 C1.45498624 19.15654165 1.84615792 33.60612401 10.046875 48.1796875 C11 50 11 50 11 52 C8 51 8 51 6.9375 49.14453125 C6.628125 48.37496094 6.31875 47.60539062 6 46.8125 C4.83621026 43.99702405 3.65597129 41.33651606 2.25 38.625 C1 36 1 36 1 33 C0.34 32.67 -0.32 32.34 -1 32 C-1.02465504 27.60343827 -1.04283842 23.2069128 -1.05493164 18.81030273 C-1.05997121 17.31355082 -1.06680287 15.81680384 -1.07543945 14.32006836 C-1.08752159 12.17300193 -1.09323191 10.02600038 -1.09765625 7.87890625 C-1.10289307 6.5854126 -1.10812988 5.29191895 -1.11352539 3.95922852 C-1 1 -1 1 0 0 Z " fill="#0E5A33" transform="translate(26,86)"/>
<path d="M0 0 C2.22237454 3.33356181 2.24742278 4.40426167 2.23046875 8.2890625 C2.22853516 9.31257813 2.22660156 10.33609375 2.22460938 11.390625 C2.21236328 12.45796875 2.20011719 13.5253125 2.1875 14.625 C2.18685547 15.70007813 2.18621094 16.77515625 2.18554688 17.8828125 C2.14022321 25.85977679 2.14022321 25.85977679 1 27 C0.84193469 28.92478813 0.748865 30.8549921 0.68359375 32.78515625 C0.64169922 33.95498047 0.59980469 35.12480469 0.55664062 36.33007812 C0.51732422 37.56177734 0.47800781 38.79347656 0.4375 40.0625 C0.39431641 41.29806641 0.35113281 42.53363281 0.30664062 43.80664062 C0.20015802 46.87097335 0.09814576 49.93539073 0 53 C-0.33 53 -0.66 53 -1 53 C-1.02526692 45.61271898 -1.0428316 38.22544902 -1.05493164 30.83813477 C-1.05997363 28.32283105 -1.06680703 25.80753028 -1.07543945 23.29223633 C-1.08751094 19.68570225 -1.09322949 16.07920677 -1.09765625 12.47265625 C-1.10281754 11.34038101 -1.10797882 10.20810577 -1.11329651 9.04151917 C-1.11337204 8.00051559 -1.11344757 6.95951202 -1.11352539 5.88696289 C-1.115746 4.96540909 -1.11796661 4.04385529 -1.12025452 3.09437561 C-1 1 -1 1 0 0 Z " fill="#1C5336" transform="translate(112,27)"/>
<path d="M0 0 C1.29683623 3.89050869 0.41347964 5.68528522 -0.8125 9.5625 C-1.16957031 10.71878906 -1.52664062 11.87507812 -1.89453125 13.06640625 C-3 16 -3 16 -5 18 C-5.71408334 19.98356483 -6.38617742 21.98315437 -7 24 C-8.98 24 -10.96 24 -13 24 C-13 23.34 -13 22.68 -13 22 C-17.62 22 -22.24 22 -27 22 C-26.10830166 18.43320663 -25.5329766 17.04396879 -23.4375 14.25 C-22.98246094 13.63640625 -22.52742187 13.0228125 -22.05859375 12.390625 C-21.70925781 11.93171875 -21.35992187 11.4728125 -21 11 C-20.67 11.66 -20.34 12.32 -20 13 C-20.99609375 14.9453125 -20.99609375 14.9453125 -22.4375 17.125 C-22.91058594 17.84945312 -23.38367188 18.57390625 -23.87109375 19.3203125 C-24.24363281 19.87460938 -24.61617187 20.42890625 -25 21 C-19.90418711 21.04436653 -15.02488318 20.90316528 -10 20 C-7.46725126 17.2260371 -7.03490377 16.36197552 -6 13 C-5.11993115 11.0552886 -4.22322918 9.11804292 -3.3125 7.1875 C-2.89613281 6.25292969 -2.47976562 5.31835938 -2.05078125 4.35546875 C-1.39701846 2.88997074 -0.71764757 1.43529515 0 0 Z " fill="#206943" transform="translate(172,117)"/>
<path d="M0 0 C0.66 0 1.32 0 2 0 C2 0.66 2 1.32 2 2 C2.99 2 3.98 2 5 2 C6.05250229 4.45583867 6.94938252 6.70995192 7.40991211 9.34887695 C8.0633088 12.28443124 9.12578822 14.56025844 10.50390625 17.23046875 C11.24350586 18.68163086 11.24350586 18.68163086 11.99804688 20.16210938 C12.51431641 21.16048828 13.03058594 22.15886719 13.5625 23.1875 C14.58819798 25.1791589 15.61051551 27.17256357 16.62890625 29.16796875 C17.08338135 30.04735107 17.53785645 30.9267334 18.00610352 31.83276367 C19 34 19 34 19 36 C19.66 36 20.32 36 21 36 C21.69906942 37.59915881 22.38389468 39.20455045 23.0625 40.8125 C23.63677734 42.15248047 23.63677734 42.15248047 24.22265625 43.51953125 C25 46 25 46 24 49 C23.59652344 48.19304687 23.19304687 47.38609375 22.77734375 46.5546875 C22.49318604 45.98645264 22.20902832 45.41821777 21.91625977 44.83276367 C21.24852038 43.49711834 20.58105144 42.16133778 19.91381836 40.82543945 C17.67345658 36.34135847 15.4280546 31.85984936 13.17753601 27.38085938 C11.81456112 24.6675094 10.45323651 21.953333 9.09207153 19.23907471 C8.4058368 17.87164975 7.71888624 16.50458379 7.03121948 15.13787842 C6.05151367 13.19049822 5.07433315 11.24186942 4.09765625 9.29296875 C3.52539307 8.1536792 2.95312988 7.01438965 2.36352539 5.84057617 C1 3 1 3 0 0 Z " fill="#2D724D" transform="translate(62,89)"/>
<path d="M0 0 C1 3 1 3 -0.65234375 6.3984375 C-1.7845937 8.40241972 -2.94525133 10.38825103 -4.10742188 12.375 C-6.22274111 16.12064465 -7.41553534 18.58094147 -7 23 C-8.22842822 26.30730675 -8.93993405 26.95995603 -12 29 C-15.62080129 28.90715894 -16.75945422 28.24704701 -19.3125 25.625 C-21 23 -21 23 -21 20 C-17.61994673 21.44859426 -15.5412772 23.37330171 -13 26 C-12.67725098 25.31897217 -12.35450195 24.63794434 -12.02197266 23.9362793 C-10.55872629 20.85220213 -9.09190671 17.76983773 -7.625 14.6875 C-7.11710937 13.61564453 -6.60921875 12.54378906 -6.0859375 11.43945312 C-5.59609375 10.41142578 -5.10625 9.38339844 -4.6015625 8.32421875 C-4.15119629 7.37635498 -3.70083008 6.42849121 -3.23681641 5.4519043 C-2 3 -2 3 0 0 Z " fill="#1F6844" transform="translate(61,124)"/>
<path d="M0 0 C4.1117256 -0.02465746 8.22342278 -0.04283959 12.33520508 -0.05493164 C13.73495228 -0.0599708 15.1346942 -0.06680216 16.53442383 -0.07543945 C18.54245777 -0.0875232 20.55052957 -0.09269807 22.55859375 -0.09765625 C24.37315063 -0.10551147 24.37315063 -0.10551147 26.22436523 -0.11352539 C29 0 29 0 30 1 C29.60905161 6.66875172 28.44900763 10.88902756 26 16 C25 14 25 14 28 2 C18.76 2 9.52 2 0 2 C0 1.34 0 0.68 0 0 Z " fill="#2E6D4F" transform="translate(129,107)"/>
<path d="M0 0 C0.66 0 1.32 0 2 0 C3.97094808 4.92737019 4.1799928 8.78020872 4 14 C4.66 14 5.32 14 6 14 C6.02909763 17.24998112 6.04683161 20.49992857 6.0625 23.75 C6.07087891 24.67039062 6.07925781 25.59078125 6.08789062 26.5390625 C6.09111328 27.42851563 6.09433594 28.31796875 6.09765625 29.234375 C6.10289307 30.05131836 6.10812988 30.86826172 6.11352539 31.70996094 C6.00299021 33.93968135 5.62055567 35.86133755 5 38 C4.34 38 3.68 38 3 38 C3.01571045 37.4016333 3.0314209 36.8032666 3.04760742 36.18676758 C3.43705909 20.60984778 3.43705909 20.60984778 0.65625 5.36328125 C0 3 0 3 0 0 Z " fill="#0F5831" transform="translate(169,74)"/>
<path d="M0 0 C0.5775 0.61875 1.155 1.2375 1.75 1.875 C3.79387088 4.07613393 3.79387088 4.07613393 6.125 4.8125 C8 6 8 6 8.8125 9.25 C10.18790202 13.59337479 11.57942695 14.69090555 15.046875 17.37890625 C18.44234017 20.19714234 21.17898312 23.62163936 24 27 C20.19435764 27 19.14477984 25.55765083 16.51831055 22.9855957 C15.67393433 22.12647583 15.67393433 22.12647583 14.8125 21.25 C14.23604736 20.66887451 13.65959473 20.08774902 13.06567383 19.48901367 C0 5.97374469 0 5.97374469 0 0 Z " fill="#488966" transform="translate(14,149)"/>
<path d="M0 0 C1.15371094 0.00322266 2.30742188 0.00644531 3.49609375 0.00976562 C4.68589844 0.01814453 5.87570313 0.02652344 7.1015625 0.03515625 C8.92107422 0.04192383 8.92107422 0.04192383 10.77734375 0.04882812 C13.76046757 0.06057271 16.74348929 0.07699785 19.7265625 0.09765625 C19.7265625 0.42765625 19.7265625 0.75765625 19.7265625 1.09765625 C19.01000488 1.1227124 18.29344727 1.14776855 17.55517578 1.17358398 C14.32044736 1.28935376 11.08602409 1.41216594 7.8515625 1.53515625 C6.72363281 1.57447266 5.59570312 1.61378906 4.43359375 1.65429688 C3.35722656 1.69619141 2.28085938 1.73808594 1.171875 1.78125 C-0.32061768 1.83623657 -0.32061768 1.83623657 -1.84326172 1.89233398 C-4.28123251 1.94725157 -4.28123251 1.94725157 -6.2734375 3.09765625 C-6.2734375 3.75765625 -6.2734375 4.41765625 -6.2734375 5.09765625 C-11.2734375 4.09765625 -11.2734375 4.09765625 -16.2734375 3.09765625 C-11.15199833 0.14297981 -5.80215571 -0.02872354 0 0 Z " fill="#13613A" transform="translate(93.2734375,1.90234375)"/>
<path d="M0 0 C7.07512387 6.06439189 10.75646619 15.08058511 13 24 C13 24.99 13 25.98 13 27 C12.34 27 11.68 27 11 27 C10.01 22.71 9.02 18.42 8 14 C7.34 14 6.68 14 6 14 C3.60457417 9.41845739 1.49170266 4.9723422 0 0 Z " fill="#307A50" transform="translate(146,63)"/>
<path d="M0 0 C0.33 0.66 0.66 1.32 1 2 C0.32517578 3.34771484 0.32517578 3.34771484 -0.36328125 4.72265625 C-3.0339679 10.58539866 -2.83892787 17.10244142 -3.1875 23.4375 C-3.3102832 25.39333008 -3.3102832 25.39333008 -3.43554688 27.38867188 C-3.63501754 30.59193604 -3.82279955 33.79543961 -4 37 C-4.33 37 -4.66 37 -5 37 C-7.25675 11.87957166 -7.25675 11.87957166 -1 1 C-0.67 0.67 -0.34 0.34 0 0 Z " fill="#236844" transform="translate(47,73)"/>
<path d="M0 0 C0 3 0 3 -2.5546875 5.91796875 C-3.65369246 7.01564319 -4.76084093 8.10521047 -5.875 9.1875 C-6.43058594 9.74630859 -6.98617187 10.30511719 -7.55859375 10.88085938 C-11.73305861 15 -11.73305861 15 -14 15 C-14.0625 12.3125 -14.0625 12.3125 -13 9 C-10.83764859 7.46359242 -8.61301398 6.33835003 -6.234375 5.16796875 C-3.66394338 3.82433404 -1.87633945 2.20265936 0 0 Z " fill="#2D7650" transform="translate(176,162)"/>
<path d="M0 0 C4.13621084 3.3810038 7.81316569 6.66590534 11 11 C10.67 11.66 10.34 12.32 10 13 C8.0625 12.6875 8.0625 12.6875 6 12 C5.67 11.01 5.34 10.02 5 9 C4.154375 8.195625 3.30875 7.39125 2.4375 6.5625 C0 4 0 4 0 0 Z " fill="#337754" transform="translate(170,30)"/>
<path d="M0 0 C1.25348607 2.95106435 1.01044806 3.97406463 -0.21484375 7.015625 C-1.06755859 8.61664063 -1.06755859 8.61664063 -1.9375 10.25 C-2.50339844 11.32765625 -3.06929687 12.4053125 -3.65234375 13.515625 C-4.09707031 14.33546875 -4.54179688 15.1553125 -5 16 C-7.12508244 12.81237635 -7.5020163 10.73487777 -8 7 C-6.68 7 -5.36 7 -4 7 C-2.68 4.69 -1.36 2.38 0 0 Z " fill="#165D38" transform="translate(52,108)"/>
<path d="M0 0 C0.66 0 1.32 0 2 0 C2 0.66 2 1.32 2 2 C2.66 2 3.32 2 4 2 C4.2475 2.5775 4.495 3.155 4.75 3.75 C5.8918301 6.11653922 5.8918301 6.11653922 8.0625 7.75 C10.88737183 11.03049632 10.71523418 13.72851263 11 18 C8.7587995 15.10985487 6.80959749 12.14091037 4.9375 9 C4.43089844 8.154375 3.92429688 7.30875 3.40234375 6.4375 C2.18542039 4.32229059 1.06237379 2.19591138 0 0 Z " fill="#0E4E2D" transform="translate(156,52)"/>
<path d="M0 0 C3.81684226 1.55500981 6.19195732 4.03595495 9 7 C8.67 7.66 8.34 8.32 8 9 C6.68 8.34 5.36 7.68 4 7 C3.67 7.66 3.34 8.32 3 9 C0.70620251 5.55930376 0 4.27709699 0 0 Z " fill="#2A734D" transform="translate(137,54)"/>
<path d="M0 0 C4.67105792 1.55701931 8.08705685 4.08447373 12 7 C9.66666667 7 7.33333333 7 5 7 C5 6.34 5 5.68 5 5 C4.34 5 3.68 5 3 5 C3 4.01 3 3.02 3 2 C2.01 1.67 1.02 1.34 0 1 C0 0.67 0 0.34 0 0 Z " fill="#418662" transform="translate(149,14)"/>
<path d="M0 0 C0.5775 0.61875 1.155 1.2375 1.75 1.875 C3.83069418 4.05293915 3.83069418 4.05293915 6.1875 5.0625 C8 6 8 6 9 9 C6 9 6 9 3.375 6.75 C1.23420779 4.27118796 0.35159057 3.16431511 0 0 Z " fill="#327854" transform="translate(14,149)"/>
<path d="M0 0 C4.83256305 0.41421969 6.82679218 2.46413986 10 6 C6.7 5.34 3.4 4.68 0 4 C0 2.68 0 1.36 0 0 Z " fill="#2F714F" transform="translate(127,48)"/>
<path d="M0 0 C0.66 0 1.32 0 2 0 C2 0.66 2 1.32 2 2 C2.99 2 3.98 2 5 2 C5.66 3.65 6.32 5.3 7 7 C6.01 7.495 6.01 7.495 5 8 C2.27573689 5.64722731 1.1858237 3.37503669 0 0 Z " fill="#1E6A42" transform="translate(62,89)"/>
<path d="M0 0 C1.97566188 1.97566188 2.89579072 3.52337094 4.125 6 C4.47820313 6.70125 4.83140625 7.4025 5.1953125 8.125 C6 10 6 10 6 12 C3 11 3 11 2.05078125 9.2578125 C1.80714844 8.55398437 1.56351563 7.85015625 1.3125 7.125 C1.06113281 6.42632812 0.80976563 5.72765625 0.55078125 5.0078125 C0 3 0 3 0 0 Z " fill="#0E512E" transform="translate(31,126)"/>
<path d="M0 0 C1.07999887 3.2399966 0.92129428 4.38363535 0.1875 7.625 C0.01605469 8.42164062 -0.15539062 9.21828125 -0.33203125 10.0390625 C-1 12 -1 12 -3 13 C-2.67 9.37 -2.34 5.74 -2 2 C-1.34 2 -0.68 2 0 2 C0 1.34 0 0.68 0 0 Z " fill="#1B5F3D" transform="translate(155,115)"/>
<path d="M0 0 C0.66 0.33 1.32 0.66 2 1 C1.3125 3.875 1.3125 3.875 0 7 C-2.625 8.375 -2.625 8.375 -5 9 C-4.67 8.01 -4.34 7.02 -4 6 C-3.34 6 -2.68 6 -2 6 C-1.34 4.02 -0.68 2.04 0 0 Z " fill="#1A643D" transform="translate(52,144)"/>
<path d="M0 0 C5.94 0.99 5.94 0.99 12 2 C8 4 8 4 4.3125 3.25 C1 2 1 2 0 0 Z " fill="#136139" transform="translate(115,3)"/>
<path d="M0 0 C1.32 0.33 2.64 0.66 4 1 C4 1.66 4 2.32 4 3 C4.99 3.33 5.98 3.66 7 4 C8.1875 6.0625 8.1875 6.0625 9 8 C4.7257442 6.4169423 2.73468206 3.49431596 0 0 Z " fill="#175E3A" transform="translate(31,169)"/>
<path d="M0 0 C0.33 0.66 0.66 1.32 1 2 C-0.80831392 5.61662784 -3.05278838 8.25604436 -6 11 C-4.54955729 6.89041233 -2.48889248 3.56741255 0 0 Z " fill="#16603A" transform="translate(21,41)"/>
<path d="M0 0 C0.66 0.33 1.32 0.66 2 1 C0.02 5.455 0.02 5.455 -2 10 C-2.66 8.68 -3.32 7.36 -4 6 C-3.34 6 -2.68 6 -2 6 C-1.34 4.02 -0.68 2.04 0 0 Z " fill="#115431" transform="translate(59,94)"/>
<path d="M0 0 C2.475 0.495 2.475 0.495 5 1 C5.33 1.99 5.66 2.98 6 4 C6.66 4 7.32 4 8 4 C7.67 4.66 7.34 5.32 7 6 C5.83054208 5.19152271 4.66449539 4.37810888 3.5 3.5625 C2.8503125 3.11003906 2.200625 2.65757812 1.53125 2.19140625 C1.0259375 1.79824219 0.520625 1.40507812 0 1 C0 0.67 0 0.34 0 0 Z " fill="#16613B" transform="translate(40,177)"/>
<path d="M0 0 C0.33 0.66 0.66 1.32 1 2 C0.34 2 -0.32 2 -1 2 C-1.33 2.99 -1.66 3.98 -2 5 C-3.65 5.33 -5.3 5.66 -7 6 C-2.25 1.125 -2.25 1.125 0 0 Z " fill="#15613A" transform="translate(47,17)"/>
</svg>
